<mxfile host="app.diagrams.net" agent="Mozilla/5.0 (Windows NT 10.0; Win64; x64) AppleWebKit/537.36 (KHTML, like Gecko) Chrome/128.0.0.0 Safari/537.36 Edg/128.0.0.0" version="24.7.12">
  <diagram name="Page-1" id="qzJNUGJgPOdDjedRNEcQ">
    <mxGraphModel dx="1044" dy="599" grid="0" gridSize="10" guides="1" tooltips="1" connect="1" arrows="1" fold="1" page="1" pageScale="1" pageWidth="850" pageHeight="1100" math="0" shadow="0">
      <root>
        <mxCell id="0" />
        <mxCell id="1" parent="0" />
        <mxCell id="SwJtXtkmymtZSZwV3173-5" value="" style="rounded=1;whiteSpace=wrap;html=1;verticalAlign=bottom;arcSize=3;" vertex="1" parent="1">
          <mxGeometry x="381" y="95" width="258" height="147" as="geometry" />
        </mxCell>
        <mxCell id="SwJtXtkmymtZSZwV3173-6" value="" style="shape=image;verticalLabelPosition=bottom;labelBackgroundColor=default;verticalAlign=middle;aspect=fixed;imageAspect=0;image=data:image/png,iVBORw0KGgoAAAANSUhEUgAABQAAAAUACAYAAAAY5P/3AAAABGdBTUEAALGPC/xhBQAAACBjSFJNAAB6JgAAgIQAAPoAAACA6AAAdTAAAOpgAAA6mAAAF3CculE8AAAABmJLR0QAAAAAAAD5Q7t/AAAACXBIWXMAAA4sAAAOLAH5m+4QAAAAB3RJTUUH5AMNEyc0EdoKwAAAgABJREFUeNrs3Xe8ZWdd7/HPs9Zup58zM5kkM+l1EgLSQSAkE0MRFQRBRUBFUeEicIFLx3IRUQELKlfFBmkQ0IQOUpKICKJShfSZyUymZTLlzGm7rvXcP/YkBNKmnDnr7L0/79drv+YkQPJNSM7e63t+z/MDSZIkSZIkSZIkSZIkSZIkSZIkSZIkSZIkSZIkSZIkSZIkSZIkSZIkSZIkSZIkSZIkSZIkSZIkSZIkSZIkSZIkSZIkSZIkSZIkSZIkSZIkSZIkSZIkSZIkSZIkSZIkSZIkSZIkSZIkSZIkSZIkSZIkSZIkSZIkSZIkSZIkSZIkSZIkSZIkSZIkSZIkSZIkSZIkSZIkSZIkSZIkSZIkSZIkSZIkSZIkSZIkSZIkSZIkSZIkSZIkSZIkSZIkSZIkSZIkSZIkSZIkSZIkSZIkSZIkSZIkSZIkSZIkSZIkSZIkSZIkSZIkSZIkSZIkSZIkSZIkSZIkSZIkSZIkSZIkSZIkSZIkSZIkSZIkSZIkSZIkSZIkSZIkSZIkSZIkSZIkSZIkSZIkSZIkSZIkSZIkSZIkSZIkSZIkSZIkSZIkSZIkSZIkSZIkSZIkSZIkSZIkSZIkSZIkSZIkSZIkSZIkSZIkSZIkSZIkSZIkSZIkSZIkSZIkSZIkSZIkSZIkSZIkSZIkSZIkSZIkSZIkSZIkSZIkSZIkSZIkSZIkSZIkSZIkSZIkSZIkSZIkSZIkSZIkSZIkSZIkSZIkSZIkSZIkSZIkSZIkSZIkSZIkSZIkSZIkSZIkSZIkSZIkSZIkSZIkSZIkSZIkSZIkSZIkSZIkSZIkSZIkSZIkSZIkSZIkSZIkSZIkSZIkSZIkSZIkSZIkSZIkSZIkSZIkSZIkSZIkSZIkSZIkSZIkSZIkSZIkSZIkSZIkSZIkSZIkSZIkSZIkSZIkSZIkSZIkSZIkSZIkSZIkSZIkSZIkSZIkSZIkSZIkSZIkSZIkSZIkSZIkSZIkSZIkSZIkSZIkSZIkSZIkSZIkSZIkSZIkSZIkSZIkSZIkSZIkSZIkSZIkSZIkSZIkSZIkSZIkSZIkSZIkSZIkSZIkSZIkSZIkSZIkSZIkSZIkSZIkSZIkSZIkSZIkSZIkSZIkSZIkSZIkSZIkSZIkSZIkSZIkSZIkSZIkSZIkSZIkSZIkSZIkSZIkSZIkSZIkSZIkSZIkSZIkSZIkSZIkSZIkSZIkSZIkSZIkSZIkSZIkSZIkSZIkSZIkSZIkSZIkSZIkSZIkSZIkSZIkSZIkSZIkSZIkSZIkSZIkSZIkSZIkSZIkSZIkSZIkSZIkSZIkSZIkSZIkSZIkSZIkSZIkSZIkSZIkSZIkSZIkSZIkSZIkSZIkSZIkSZIkSZIkSZIkSZIkSZIkSZIkSZIkSZIkSZIkSZIkSZIkSZIkSZIkSZIkSZKkvhKKDiBJkqR7ixH2XLmW8gl1Op1KmsSQhBiSAEmENCYhCTEmQML3P9MlB34NhBAO/IHCPf7ze34dD7y6X4cQ7/4zx7t/f36P/24eCXmIMSeQAXlMYp7HmCftLAsRJsplwvrtRf+tkyRJ0g+xAJQkSVpEd1y7jm/xNB7H1QlkKeQphARII6RJpERkOCZhFOIoMEpgJEZGA4wANaB64FW7j1/v6z+/qwSsHIiRAOUDX6dA6cDXpXt83Tnwuuvr7MDXbb5f/LU4UP4BTaBxkL82gUaE+RCYIzIPzEGYC3mcI7CQBzqh++fMIOaQZHneya688o782c8e5rgfXyj6/0pJkqS+YQEoSZL0IOb+bQ15TsjzkBBIIzFJYijlMQ4TGAcmgQlgPHS/XgWsOPD7x4Gxe7xG6RZ15ft4legWdr3+GS3SLfc6dAvFH361gDlg9h6vGWAa2AtMx+5vzx74ffuB6RDDDElsQ8iJZEkS8yQhjp7v1KEkSdID6fUPl5IkSUdk+to1AOR5EpI0JkCFGKfoFnhTEFZAPBY4jm6xt/LAawUwDAzRncS769e7JvJ0ZFp0JwnrB14NuoXgnnu8dgM7D3w9Dewhsi8E9hKSekbMk1IpB5h80uai/3okSZIKYwEoSZL63sKHJ6neMcPsOcfWSMMK7i73GAfuKvfWAMcf+O27pvbG+f7EnpavDJinOyl410ThHmAHsJ1uSbiNexSFMWNfdTZrMF9n+IUzReeXJEk6qiwAJUlSX5i+5nhI05Q8HyWESSKTEFcCJwAnAScf+PUYvl8AjtA9cqv+l9E9djzN9ycIdwJbDrw2050onAam0yTdn+d5Z2L9tqJzS5IkHTELQEmS1DOmv3gcgRjykA4TmAyBKSInAafTLfhOAFbTPap7DN2Sr4xHcvXAcroF4QzdEvBOutODm+mWgxsibA0wDXG6Qmu2QymOr7+j6NySJEkHxQJQkiQtO917+WIaQxgN3SO4K4mcRrfoOxU48cBrLd1jumWc5NPRkdFdXDJHd2JwK9+fGNxw4HVHhPkIs1/asr39uLWrOP7i3UXnliRJupsFoCRJKszuf11DhFDKGQowSgxrY+CsQDydbsF317Hd4+gu2ahi0aflIae7qKROd2JwK3AbgQ1ENhDDzTHEHcB8J4vzQ2k1/87MbTzhWUXHliRJg8gCUJIkHXU3XLuGddUK+1rNUkJSJcapCKcFOA04A1hHd7pvLd2Jvxp+TlFvinQ3Fs/RLQY3AjcCNwGbImwgsCdGGo0y7TTCsedvLzqzJEnqc36wliRJi2rPtceSJ03SbDiFMBRCPPFA0XcKcDZwFt3fXsH3j+9K/e6uY8T76B4hvhm4HrglRjZFwlZCrEfoAKxcbykoSZIWjwWgJEk6IrPXrqEFIY1ZJYb0uNAt+tYB5wEPpfvbK+hO9vnZQ/q+SLcU3ANsp1sIfjvCDcDmJIZtWSk2Kk3i6FMsBCVJ0uHzQ7gkSTpo09euIWu1CUlIQyldFQgnRTgjdIu+R9C9s+84YBI/Z0iHIwKzwB10JwW/A3wbuDnClhC4gw4dJmDyMZaCkiTp4PjBXJIkPaC91x1PiIwEwhoiZxF4FPAwvr+gYxWQFJ1T6mOR7tHh2+luHf428I0DX2/by/aZU3kKYf3ni84pSZKWKQtASZJ0t31fPI6knYe8WpoEjg/do7yPpVv4nUl3M2+16JzSgIt07xTcAdwCfBf4zxj4XiBsS0v53jwLceICJwQlSVKXBaAkSQPqzi+fzOjcAs1qpUyMUzGENYH4MOBRdO/vO5vudF8FPzNIy9ldheA+utuGvwt8OxK/GULYHIn7ymG4Xc/3ccz6vUVnlSRJBfDDvCRJA2T6X08AKBHjeIycGIiPBh5Hd8LvdGAMJ/ykftAGZoBb6d4j+A2I/01INsU87CfQmVq/teiMkiRpiVgASpLUx6avXQOQxMhwCJxEd1HHo+ke6z2d7rIOCz+p/7WBabpHhr9BCN8gxm8Q4yZCmAcygMn1HhuWJKkfWQBKktRH9lx7IpEQUjqVEOPxhHDXkd7HA+cAxwC1onNKKlwL2E23EPwq8N/A/xDY0m6Vm0mSx5UX3150RkmStEgsACVJ6nH1z0/SirUklsIKQjiP7pHeJ9Bd4LEWGCk6o6Rlrw5sB74HfIXANyD8TxJKu2qlal554s1F55MkSUfAAlCSpB4zfe0aspgTCJUQwqkh8CNEnky3+DsdmCo6o6SeNwNspDsZeC3w7ZjHjZ3xSn3kpmmGX7i/6HySJOkQWABKktQDpj+/GvI8xEp5JYQzQ/dI75OBhwInA6WiM0rqWx1gK93pwC8D/x7hlpDnuwghn7xoR9H5JEnSg7AAlCRpGdr80dNZfdw89YVSNQnxBIjn0S38Hgs8hO7yDt/HJS21CMwCNwJfI/BvEL+RZ+nWoaF2c9euUU7+6Q1FZ5QkST/EBwdJkpaJHV9Yxeu+sZs/f8ya4YR4ciQ8IcBFwGOAE+lu6/W9W9Jy0gS2AP8d4csBvhQDm1t5nE1DYJVbhSVJWhZ8iJAkqUDT166BQIiRUeCMAE/i+5N+xwGVojNK0kFqA3cCX6d7b+CXYuSWThpmAzGuusAyUJKkolgASpK0xPZdsxYICeRjBM4J3cLvycCjgFV4n5+k3tcB9gDfBv41wr8R43cJzADZ1HrvDZQkaSlZAEqStAT2XXc8WVYKScimksAjgCcCF9K9z28VkBSdUZKOkhzYB9wAXAdcF0L4Vidm+xLSfGr9tqLzSZLU9ywAJUk6SnZ//iTqswmjk+2xEOLD6RZ+TwPOxSUekgZTBKaBm4AvAtfEPP9GC6ZLScJK7wyUJOmo8MFDkqRF1PjkKDMrjqPSWBgl8BDgArql348AK4vOJ0nLzDTwP8DnI1wbSL4zNzUzs3rzsVSedUvR2SRJ6hsWgJIkLYJ9162BGEcC4Wy69/k9je6dfscUnU2SesRe4JvA5yFcGyM3ALNTF3lEWJKkI2UBKEnSYdh77WoqeZUsdIZiCKfz/dLvscBqvNNPkg5XpLtA5L+AzxO4JhBuTktpvbXQYsVTdxadT5KknmMBKEnSIdh33VoilAKsCTE+CXgm8CTgOCAtOp8k9ZkM2Al8GfgMxC/lIWwN0J660PsCJUk6WBaAkiQ9iL1fPAEghJBPhe4G358ELgbOAGpF55OkAdECNtJdHvJJ4L9z8r1AvmK9U4GSJD0QC0BJku7D3mvX0BwqMTTfHiKEdQSeCjwdeDgwge+hklSkGeC7wGeAzxHid9ul8kKadVhxgZOBkiT9MB9eJEm6h+l/PQECJbL8BLobfJ8BPBGP+ErScpQDu4D/AD4FXBcitwGdiYssAiVJuosFoCRp4E1fu4Y6IwwzNx4JjwV+Gvgx4FSgWnQ+SdJBaQObgM8Bn4yRr8WM6aQEk+stAyVJg80CUJI0sGavXQ2QZpROo3un33OARwOTRWeTJB2RGeCbwEeBz+YZtwDZiostAiVJg8kCUJI0UBauXclm1rGGjZOR8Cjg2cBTgNPxiK8k9ZscuI3u4pCrgP+c+I/O3j1PLLHqyZaBkqTBYQEoSRoI+65dS0qnlJOeCjwVeBbwWLoLPSRJ/W8O+G/gE8Bn8sCtSaTt8WBJ0iCwAJQk9a1916xlsrWN/eU1kyQ8mu9P+50KlIrOJ0kqRAZsAb4AXA18deLOndPTq49n6sJtRWeTJOmosACUJPWdfdeuAUhC4HgiTwV+FvhRYBzf+yRJ3zcDfAW4OhI/G0K6LRIzi0BJUr/xIUiS1Df2ffE4SEIlRM4mhGfRnfg7F6gVnU2StKy1gJvoTgR+NObh+gDNyR+zCJQk9QcLQElST5v+/Goq1+yidfHxYyTh8cDzgKcBJwBJ0fkkST0lB3YAn4/wkSTw7yHv7M9DCe8KlCT1MgtASVJP2nfNGkIeAmlcA1zM94/5ThWdTZLUF/YDXwM+EgmfyxNuD5G4wuPBkqQeZAEoSeope689nkgspzGcSwg/RfeY73lApehskqS+1AGuBz4GXJVn8btJEjqTFzkRKEnqHRaAkqSesO+6NRDDUCA+CvgF4CfpHvP1vUyStBQisBX4lwiXJ/CfWR4WVnhPoCSpB/jQJElatvZct4ZKB9olJpPIjwIvBJ4CHFN0NknSQNsLfBG4jBi+PDS8sHdhYZipiywDJUnLkwWgJGnZ2Xft8bRDh2qsrI7EpwAvAJ4EjBWdTZKke5gDvgpcEQOfJeMOEuKUC0MkScuMBaAkadnYd81a8pgkaZKdCPwE8PPAo4GhorNJkvQAGsA3gQ8TwsfJwuaY5JlFoCRpubAAlCQVbvq6tZDnpRjCGQGeCzwPWIeLPSRJvaUN3AL8U4R/CiG/ISRJZ+LJFoGSpGJZAEqSCrHrX05hJJmjTTmlFM4FXgQ8BzgFSIvOJ0nSEciBzcA/EflgCPn/pJWk01noMPmUXUVnkyQNIAtASdKS2/+FEwl5KOXl7GEQXwg8GzgZ35ckSf3lrs3BV0O8LCH5FsT2uEeDJUlLzActSdKS2Xft8eQxlksheUTsTvw9CzgB348kSf1vO/CxGLgsdvKvhzRpekegJGmp+MAlSTrq9v/rWvJOVglJ8mjgF4FnAscXnUuSpALsAj4JfIAQ/pM8b0xetKPoTJKkPmcBKEk6KvLLRtl78iSldlYjhMcCv0x3s+/qorNJkrQM7AE+A7w/J3ylXOnU9945ysk/vaHoXJKkPmQBKEladNPXrgHiECH8KJFfBp4OHFN0LkmSlqG9wGcC/EOMfBWoT17k0WBJ0uKyAJQkLZp91x5PhGpCeDTwK3SP+q4qOpckST1gN/Ap4B+J4WtAY/KibUVnkiT1CQtASdIRm7nuRGKgFPPsEXSLv2cBx+H7jCRJh+oO4GPA+xP4epIkrdELthadSZLU43wwkyQdtv1fOh4gjXk4j8gvAj9Ld6uvJEk6MtuBf4b4gTSP3yLLsmzFCiYffVPRuSRJPcgCUJJ0yKavWwPEhJisg/hC4PnAyfi+IknSYrsduDKG+IGc5IZAzFZc6B2BkqRD44OaJOmg7f3CCeRZEkqVzunAC4EXAKfj+4kkSUdTBDYBHwQuTZLOzTEmceLCnUXnkiT1CB/YJEkPavZzJ3DnugYrNlROpFv8vRBYByRFZ5MkaYBE4GbgAxCumNi5bXN91SqGn7K76FySpGXOAlCSdL+mr1tLFjOSkK4MMT4H+DXgkUBadDZJkgZYBnwHeF+Ef+5Uy3eWGy0mL9pRdC5J0jJlAShJupfmp1cxPTFMtdkZJfBU4KXA+UCt6GySJOluTeArwF8Bn01DPtvOS6y4yK3BkqQfZAEoSfoB+65dQ4RaAo8HfgN4BjBedC5JknS/ZoF/Af4G+DLQmFzvohBJ0vdZAEqSAJi57kTyhJQseyjdo77PBVYXnUuSJB20O4GrgL8LefKtJMTO2EXbis4kSVoGLAAlacBNdyf+QgKnRfgl4EXAyfgeIUlSL4rA7cAVEP8+ZuUNIc3j5HqPBUvSIPPhTpIG1O7Pr6Fag06bVSHw83SP+56DCz4kSeoHOXA9gffFEK8MndKuWGkxdf4dReeSJBXAAlCSBtD0NWuIMBQCFwOvAC4AKkXnkiRJi65N917A9wTC54GFifUeC5akQWMBKEkD4oZLziEQh0MSj1+9Zm5lCPHX6d7zN1F0NkmSdNTNAB8F3pvD1wNkUy4KkaSBYQEoSX3uxkvOgxiSGDrnAa8MIZ4/NtEcHR5trQkhFh1PkiQtra3APwL/MDHRuG1hrsLIk3cWnUmSdJRZAEpSn7rx0nPYlzeYSmrHxsgLgJcBpwMhhMjwaIvRsRZJmhcdVZIkLa0M+A7wlzHGq7PIvlKAyYt2FJ1LknSUWABKUh+68ZJzAIYiXAy8Cjif+7jjrzrUYWyiQbmcFR1ZkiQtvQXgC0T+PBK+DDSnLvJ+QEnqRxaAktRHvnv5Q2iVSmGo1TqPyMuBnwWmHuh/UyrnjE00qA21i44vSZKKcSdwBcS/qqX5za08xPELPRYsSf3EAlCS+sDGv3049doCSZ6sIoQXAi8FzuIgv88nSWRkvMnIaAvvBZQkaSDlwPXAe4ErY1LaF1oNJp+yq+hckqRFYAEoST3upsvOhkApz5LzgdcD64Hqof5xQoDacIux8SZpyXsBJUkaUHXgC8C7M/KvhEhnxUVOA0pSr7MAlKQedf2l5xDKJWInOyHk8aXAS4Bjj/SPW6l2GJtsUql0iv5LlCRJxdkJvB/4qyxpbyllVSYu2lp0JknSYbIAlKQedMMl5wBxGMLTgf8DPA5IFuuPn5ZyxsYbDA23faeQJGlw5cDXI/wZ8HFgbmr99qIzSZIOg491ktRDbrh0HYQ8kKfn0t3u+3PA+NH4cyVJZHisxchokyTxXkBJkgbYPPBRIn8WY/INQszdFixJvcUCUJJ6xA2XnkMMTIac5wOvBNYd9T9pgCHvBZQkSV23Ae8D/rGdxJ2j7cDQxU4ESlIvsACUpGXuhg+cCzkJpfgo4HVEfgqoLWWG7r2ADSqVrOi/HZIkqVht4N+AdycxfAFCe9y7ASVp2bMAlKRl6qb3n0MnjSQ5KwjhRXSn/k4rKk9ayhmbOHAvoCRJGnR3Av8Q4L2xVb+9PTLBMU+6rehMkqT7YQEoScvQjZecAzGkJPHRMfIG4BlAtehcSRIZHW8yPNoiBO8FlCRpwGXAfxJ4JyF+BmhOXrCj6EySpPtgAShJy8gNlzyMQBNCsirG+GIILwdOLjrXPYUAQyMtxsYbJKkloCRJYh9wOfCe7Tm3rk1gwm3BkrSsWABK0jJxwyXrgJhC8kTgDcBTgHLRue5PbajN2ESDUtnlIJIkiQh8C/jjHK4OsDBlCShJy4YFoCQtAzdcdhYhpitj5NeAVwBris50MMqVjLHJBtVqp+gokiRpeZgFPkLgT0pDteuzZitOPNklIZJUNAtASSrQdy85F2KSpCF7HPBm4Gks46m/+5KWcsbGmwwNt3xXkSRJd7kR+BMCH4x5PpeWK4yfv6XoTJI0sHxUk6QCfPcD51BOAnlkEuIvAq8FTio61+FKksjIWJORMZeDSJKkuy0AVxH5oy/End+9oHQsx7gkRJIKYQEoSUvshsvPJamEkDfyRxB5I/BTQK3oXEcqBBgebTE63iBJLAElSRLQvRvwe8C7IP4zMD+53hJQkpaaBaAkLaEbLl0HgbEQ+fkYw/8BzqTPvhfXhg8sBym5HESSJN1tlsAHgXfT4RZSmHRJiCQtmaToAJI0CL53yTnAhwiwjhjeG2P4U+As+qz8A2gslNm/d4h2Ky06iiRJWj7GiPwakQ+R8rxAUtt/zdqiM0nSwOi7B09JWk5u2PAS4le+DCFUQh6fCeEtwMOLzrUUSuWc8YkG1aF20VEkSdLyMg28Pwb+NMRkC+ROA0rSUWYBKElHyQ1XrKPUyslKyZqYh1cBvwFMFJ1rKaVpZHSiwbAbgiVJ0g/Kga9BeHtM+DzE9tQFloCSdLT4OCZJR8HNV5xJUu4knUb1fAi/EyMXMKDXLoQkMuqGYEmSdN92A++L8BeUmjtDc4TJi7cUnUmS+o4FoCQtshsuWQeRqZDwkhjD/wbWFJ2paCHA8EiT0YmmG4IlSdIPy4BrgbcD/wbkHgmWpMVlAShJi+SGy9cRy1lImqWHxshbgWcC1aJzLSdDw23GJhukqRuCJUnSvWwB/hj4QID9E5aAkrRoLAAlaRHccsWZEClnefrsGMNvAw8pOtNyVa11GJ9sUCpnRUeRJEnLTx34MPCOPCQ3J9EFIZK0GCwAJekI3PyhM8kXqoRy59g88ioILwWmis613JUrGeOTdSpVS0BJknQvEfgW8Ht5Hj9JoL3ioh1FZ5KknmYBKEmH6dYPnUU5IdRbySNj5G3E8FSgVHSuXlEq5YxNNqgNtYuOIkmSlqfdwP+LIf5lbIc706HIxJMsAiXpcFgAStJhuPmycwBqOfHnYgxvIXJm0Zl6UZrmjE00GBqxBJQkSfepDfwLIb4tJvl/hzyJkxdaAkrSobIAlKRD8O1LH8ZwaJCTnBRjeG2M/AowWnSuXpYkkdHxBsOjLYLvSpIk6b5tAP4gycMHY2Bh4qJtReeRpJ7io5YkHaRbLllHJY+hnoYnQviDGHkCkBSdqx+EEBkZazE63iSEWHQcSZK0PM0Bl8TIOysVNv/75+Cpb3NBiCQdDAtASToIN11xFkmS17JO6YUxD28BTik6U78JAYZHWoxONEgSS0BJknSfcuDLwFvIk68QYj7pNKAkPSgLQEl6ALdeeRb12YRKLR4fY3hDjOElwEjRufrZ0EibsYk6aWoJKEmS7tdtEP4gRC4lT+pxbA+Tj1soOpMkLVseXZOk+3HbP63jjJ/LqNTiY2IM/xBj+E0s/466+nyZmX1DZB3foiRJ0v06BeIfxxD/IKb52sr0KvZdt6boTJK0bDkBKEn34eYrziYEqnkWnh0j/zfGcFbRmQZNtdZhfLJBqZwVHUWSJC1fGXANhLe258J/pUMxrrjYI8GS9MMsACXpHu64cZy9Xz2RpNpZSR5em+fhpcBU0bkGVaXaLQHLFUtASZL0gG4Bfj/k8coYQmPyIpeDSNI9WQBK0gHbPnUy2zauYHLlwrl5Fn4vxvAsIC0616ArlzPGpxpUqp2io0iSpOVtP/A3IfLHIbBrL3DKeotASQILQEkCYMOHziJJYtJuJ0/L8/AHMYYfKTqTvq9UzhmfrFOtWQJKkqQH1AE+R+S3SpPbv9HacyornrKp6EySVDgLQEkDb8OHziYERjqd8Kt5zptjDMcWnUn3lpZyxicb1IbaRUeRJEnL3/XAW4n5JyB0Ji/aUXQeSSqUBaCkgbXx8rOYjynVkB8XY/jtPA+/DAwVnUv3L01zxiYbDA1bAkqSpAd1J/AuYvgrYj7HRV9jMpxUdCZJKoQFoKSBtPHKszl+VZutu8qPyDrh7TGGpwNJ0bn04JI0MjbRYHikVXQUSZK0/DWASyC+Pad9e0KVyfVuCZY0eCwAJQ2cDVeso5Zk6Xye/kSehXfEyEOKzqRDkyQHSsBRS0BJkvSgcuCLwFtK+/ivbBwmLnY5iKTBYgEoaaDc8sGzSZJ8NGunv5LH8JYYWV10Jh2eJImMHpgEDL6bSZKkB3c98FuR+HGgM7XeewElDQ4fmSQNjFuuOBtSVucd3ppnyYuB0aIz6ciEJDI23mR4tGkJKEmSDsadwLtCjH8dQ5idXO8koKTB4OOSpL6XXT/GV//pXI4/e985nU7yh3kWfhLv++sbIURGx5uMjLUIIRYdR5IkLX914FLg90IIWycu9E5ASf3PAlBSX2v80xjVNbNs3HLmU9ud9A9jHh5RdCYtvhBgZKzJ6HjTElCSJB2Mu+4FfBOUvg5tJj0SLKmPWQBK6lsbrjwLQqzkneQFeR7enudhTdGZdPRYAkqSpMPwPeCNWTt+JiQhW+FyEEl9ygJQUl/a+OGzSJI41Wqmr8zz8JoYGS86k44+S0BJknQYdgBvCzF+gBDqE94LKKkPWQBK6ju3XnkWIcQ1WSd9e9YJvwBUi86kpRMCDI82GRtvEhJLQEmSdFBmgb8g8MdE9rocRFK/sQCU1Dd2ffY0Pn7p8az/qTvP6WTJH+dZeDp+nxtIloCSJOkwtIAPQfztkIfNrRE45vEWgZL6gw/GkvrC1o+exvhEPdy5a+zCTjv5ozwPjyk6k4plCShJkg5DDlwDvD4/hm8md4LTgJL6gQWgpJ5329VnklaztDlTel7WSd6R5+HUojNpebAElCRJh+nbwBtq5aHPdfJOHH3y5qLzSNIRsQCU1NO2XHUKBIaajepLsyy8NeZhRdGZtMwEGBltMjbhYhBJknRIbg/wO8DlQMvlIJJ6mQWgpJ61+Z9PB+IxrVbpjVkneVmMYajoTFqe7p4EtASUJEmHZhp4NyH+BTAzeeGOovNI0mGxAJTUc+IcbPrUWSSl/KR2K/2jTid5HpG06Fxa3kKAkbEmo+OWgJIk6ZA0gX+M8LvAHVNOAkrqQRaAknrKjn85lTs31RhZ0T4n66R/nmXJxdjl6CBZAkqSpMOUAVdBeGOas3GhEjn2fItASb0jKTqAJB2sO/7lDI57QiOMrug8odMuvT/rWP7p0MQI87NV5maqxOjPwCRJ0kFLgedC/NssiQ8fTWvs/eLqojNJ0kHz6UdST7j946dSG2klM3tGntFpJe/K87Cu6EzqXSFERsdbjIw5CShJkg7ZfwP/J4vhS0mI0SPBknqBBaCkZW/rR0+hXMpKs/O1F2bt9PfyPJxQdCb1vm4J2DxQAhadRpIk9ZhbiLw+tLKPk4Z84ik7i84jSQ/IRx5Jy9rmfzqDkFBttdKXZZ3wO3keJovOpP4RQmRsosHIaMt3REmSdKi2Ab8dkngpkfaEG4IlLWM+7khatm7/6CmEwHh9ofK6rJO8NsYwVHQm9Z8k6ZaAw6OtoqNIkqTeMw38AfCXwMKkx4ElLVMWgJKWpc1XnU6SxNXNeul3Op3kJTGGStGZ1L+SJDI22WB4xBJQkiQdsgXgLyH8EbB3cv22ovNI0r1YAEpadg6Ufyc3G6V3dtrpz8RIWnQm9b8kiYxP1RkabhcdRZIk9Z42cCnwW8B2JwElLTcWgJKWlU0fOYMkiWe1Wul7sk76tBj9PqWlk6SRiak6tSFLQEmSdMhy4CoIr4N4myWgpOXEB2tJy8aGD51NmmYPbbfT93Y6yflF59FgSks5E1N1qrVO0VEkSVLvicBnibyaEG7yOLCk5SIpOoAkxZtP4DOvfDRJmj+21Ur/wfJPRco6CTP7hmg1S0VHkSRJvScAP07gbwjxYdPXrSG+e03RmSTJAlBSsea/Ng5nbmXd+dPr263077MseXTRmaROJ2Fmuka75fWTkiTpsFxA5G+JPH76RztMX2sJKKlYHgGWVJh9n1/L5HEL4bYbV/54q5n+aZ4nZxWdSbqnSjVjYqpOqZwVHUWSJPWm7wKvqofONVVSVly4o+g8kgaUBaCkQuz47EmMr64nuzZM/EyrWXpnnodTis4k3ZdKrcPkVJ20lBcdRZIk9aZbgNfkWfqpkORx6iLvBZS09CwAJS257R8/hdpQK53ZP/yiZqP0jjwPxxedSXogtaE241MN0tQSUJIkHZYtwBtzuDJAPuWGYElLzAJQ0pLa+tFTKVey8sJ85aWtZul38jysLDqTdDCGhtuMT9VJklh0FEmS1Jt2Ar+Vpsn7Y4yd8QucBJS0dCwAJS2Z2z92KqVyVqnPV17dbpbekudhrOhM0qEYHm0xPtkgBEtASZJ0WPYAv5sn/E2A9tQFTgJKWhoWgJKWxJaPnUqaxmpzofzadit9U56H0aIzSYcqBBgZazA63iT4DipJkg7PNPC2GOJ7gdaUi0EkLQEfXyQddduuPo00ibX5Run1nXb6xjwPQ0Vnkg5XCJGxiSYjo03fRSVJ0uGaAd4eIn8ONCcuchJQ0tHlo4uko2rnx08kSeLQ3PzQG9rt9PWWf+oHSRIZn2wwNNIqOookSepds8A7kpC8B6iPX7i16DyS+pgFoKSjZtvHTiEJcXihXnljp52+Ls9DrehM0mJJ0pyJqQa1oXbRUSRJUu+aA/4gJ/xpINbdDizpaLEAlHRU3H7VqaRpPlpvVN7cbqeviXmoFp1JWmxpKWdyRZ1KtVN0FEmS1LvmgXdBeDcwP7ne7cCSFl9SdABJ/Wfr1adRqeRj9Ublt9vt9LWWf+pXWSdhZrpGu50WHUWSJPWuEeD1EN8YQz46fe2aovNI6kNOAEpaVFuuPp1yNZ9YmC39TrudvjzmoVJ0Juloq9Y6TEzVSUt50VEkSVLvagDvAd4RAzNTF3ocWNLisQCUtGhu++fTqVazyYX5ytvareSlMYZy0ZmkpTI03GZ8qk6SxKKjSJKk3tUE3gu8DcJ+jwNLWiweAZa0KLZcfTpDI+3xhfmy5Z8GUn2hzNz+GjH6szVJknTYqsDLgd+KMR/zOLCkxeJTiqQjEiNs/9ipJGkcXVgo/267nb7CY78aVCHA6HiDkbEmwXdYSZJ0+BrAnyUxvj3C/HgIBDcESzoCTgBKOiI7P3EypVI2Ul8ov9XyT4MuRpifrVJf8F8DSZJ0RGrA/85DeGOE4f3RK0YkHRkLQEmHbfsnT4ZSHJlbqL653U7/t+WfBHkemNtfpVn3FLwkSToiNeC1hPA6YHj6muOLziOph1kASjosOz55CpVKNlSfq76h3Upfm+ehWnQmabnIsoSZ/TXarbToKJIkqbcNAa8nhFcHGJq+1hJQ0uGxAJR0yLZ+/DTSSl6b2T/0+nYrfV20/JPupdNOmJmukXV8q5UkSUdkGHhjDOGVIU+q09e4GETSofOpRNIhuf2jp1OqZtW56err2s30DXkeakVnkparVrPEzP4aee5GEEmSdERGgTfHJL4yprEyfZ0loKRDYwEo6aBt+/gpVGvNSn2m/Op2K31DnoehojNJy11joczcTJUYLQElSdIRGQfeEvLwcmKseBxY0qGwAJR0UHZ98mRGa+3Kwlztla1m6S15HkaKziT1ioW5Cgtz7siRJElHbAL4bQi/UQpJefa6tUXnkdQjLAAlPag9XziRsVXN0vRs7ddazfS38jyMFp1J6iUxBuZmqjQW3AwsSZKO2CTwu50YfylrZ+n+LzoJKOnBWQBKekCz/3osK47fl9y5feQFzUbpd7MsGS86k9SL8jwwu79Gq+lmYEmSdMRWAG+nlDw3z0th7xdPKDqPpGXOAlDS/dr9peMZffIdYctNq5/VqJd+P8uSVUVnknpZp5Mwu79Gx83AkiTpyB0LvDOUsp/45nFb2XuNk4CS7p83kku6Tzs+fRLH/fgWNl912tNajfL/y7LktKIzSf2iNtxmYqpOksSio0iSpN53C/AbpTBybTvOMrV+Z9F5JC1DFoCS7mXfNSfyra8cy2nn7ntis176uyxL1hWdSeo3o+NNRscbBN+JJUnSkfsO8OutTvjaUCVn7IIdReeRtMx4BknSD4i3jrD1lilOP2/vo1qN0nst/6SjY362Qn3ezcCSJGlRPAz4i0op/kiLlIXPeXOPpB9kASjpB9z2zeOYXD17XrNeem+nk/xI0XmkfnXXZuBmvVR0FEmS1B8eA/x5mufrWmV/yCjpB1kASrrbpqvOoFLLz2g2y3/eaaePKzqP1O+y7MBSkLabgSVJ0qJ4MvAnAU7Zf+2aorNIWkYsACUBcPtVpzNUbZ/YWCj9Saedri86jzQo2u2Umf018szLACVJ0qJ4eoR3RTh+n5uBJR3g04Y04OL1Y2y7eRWVWmfV7Eztz9rN0i/E6PcGaamNjDUZm2gSgpuBJUnSEcuB90N4HYG9WSuy8qnbi84kqUBOAEoDbseGlZTKcXRupvaWdjP9Ocs/qRgLcxXq8+WiY0iSpP6QAC+C+CYiI6WSH/GlQWcBKA2wOz57ErXRVmVhvvy/W630ZTEGtxFIBbl7KUjDfw0lSdKiKAMvh/jykOTl/dd5HFgaZBaA0oDa+olTqY51kv17hn+t3UrfEPNQLTqTNOjuXgrS8e1ZkiQtiiHgjXkMvxjzkEy7GEQaWD5hSAPojs+cxNpz7wz7dw79XLuZ/k6eh9GiM0nqardSZvfXyHOP6kiSpEUxBbyNwDPnmGDftWuLziOpABaA0oDZ8/m1fOULZ7Ll26svbjZL78iy5JiiM0n6QY2FMvMzVaL7QCRJ0uJYA/zRKPsvCKUO09dYAkqDxgJQGiAxwvS+YR75xE2PbDbK7846ySlFZ5J03+bnKzQWKkXHkCRJ/eMs4I9ppw9PiNz8jdVF55G0hCwApQGy+Z/OpFrpnNVult6TdZKHFZ1H0v2LeXcpSLuVFh1FkiT1j0cReHcewumr95eLziJpCVkASgNiy1WnUxturWk2S+/udNInFZ1H0oPrdBJmp2tkmW/XkiRp0fwYxD+AeOx+7wOUBoZPFFKfixG2f/IUKrXO5MJ85ffbrdJPeq+Y1DuazdKB+wBdCiJJkhbNc4DfisQxNwNLg8ECUOpzuz97EkPVTrU+X35Nq5X+QozYIkg9ZmG+TH3eYzqSJGnRpMCvAq8Meajs/6KTgFK/swCU+tjOL5zCqkfMhenp2i+3mqVXxzy4UUDqQTF27wNsNUtFR5EkSf2jBvyfmMTnl5oTYeZzJxedR9JRZAEo9ak7PnMyx128iS1fmXpmu5X+bp6H0aIzSTp8WZYws79G1vGtW5IkLZpJ4PfaQ9NPbQ112H+Nx4GlfuVRQKkPdb60ku9uOJ4VE/OPaTQqH8g6yTlFZ5K0OIZHW4xPNgjByzwlSdKi+VaEFycx/1anVGblk28vOo+kReYYgdSHtu2aZOXEwmnNRvldln9Sf6nPV1jwPkBJkrS4Hh7gj2JITk6zrOgsko4CC0Cpz2y56nTKtWx1s1X6oyxLLyg6j6TFFSPMex+gJElafBcD/zcEptwMLPUfC0Cpj2y7+hSqtdZwY778pk47fXb0hKDUl7IsYXZ/1fsAJUnSYkqA58fIa4mhZgko9RefHKQ+ccenT2TFsbPp/Fz1Je1W+msxkhadSdLR02qWmJutEqPX+UqSpEVTAV5BiL/cCSHZe93aovNIWiQWgFIfiDur3PLVE7hj5+RPt9ul38pjGCk6k6Sjrz5fpr7gfYCSJGlRjQO/XYrxGaGWMve+StF5JC0CxwakHrfrX05g3+5xhkcaT6gvlD+QdZIzis4kaemkpZzJlQtUKl7YLUmSFtX3gF+O5P8dYsrkRduKziPpCDgBKPWweMckCzM1RsYaJzfqpXdY/kmDJ+skzO2vkWf+TE+SJC2qhwDvgGQtIWPvdWcXnUfSEbAAlHrY9q9NUh1qTzXrpd/POm78lQZVs1Fifq5adAxJktR/Lg7w28BYku8vOoukI2ABKPWorZ88lepop7ywUHllu5X8rBt/pcG2MFehUfc+QEmStKgC8IuQ/EYektI+NwNLPcsCUOpB2z9xKmsfsy3M7Kn9XKeVvirG4FO/NODyPDA3U6XT8a1dkiQtqhrwugSeyZkXMX3dCUXnkXQYvDBI6jFz/76aTTccw9hk48mtZun9WZacWnQmScvH0EiLiakGITgWLEmSFtX1wC9B/G8oMbn+9qLzSDoEjglIPebO7eNMrmyc1m6V3m75J+mHNRYq1OcdCpYkSYvuXOD3I+FEyIrOIukQWQBKPWTLVadRq7Ynmo30/2ZZcn7ReSQtPzHC3GyVVistOookSeo/Fwd4C5HR6WvXFp1F0iGwAJR6xNZPn0JtqlVeqFde0+kkP+fSD0n3J+skzO2vkWfe9CFJkhZVAvwigZdCKFkCSr3DAlDqAfGOFdx07Wrmdg89t9NOX+HSD0kPptkoMT9XKTqGJEnqP0PA6yH/qTRpcuenf6ToPJIOgqMB0jK381MnMTs9THWo/YRGo3RZ1vHeP0kHJ0kikysXqNY6RUeRJEn953sEXkhMvhVDh6kLdxadR9IDcAJQWsZihEajTGWovbbZSH/P8k/SocjzwNxMlSzz7V6SJC26hxB5WyBfnUQ/a0jLnf+WSsvYto+eSqXSGW630jdnWbq+6DySek+rWWJ+toL3hkqSpKPgGRFeGdKYzvzr8UVnkfQALAClZer2j57OsSfXQ71e+eVOJ3lxjB7Zl3R46vMVmnWvDpUkSYsuAiFpZYROXnQWSQ+gVHQASfe29/Or2bZlhE4rXNBppW+IeRgqOpOk3pXngbnZKqVKRqnkh3NJkrRoPhKJf9Iupdnkn+4oOoukB+AEoLQM7d8/zsSK+dPanfQdeR5OKjqPpN7XbqXMz1aJ0WFiSZK0KK4NkbcGwp4kTwgfKzqOpAfiBKC0zGz55zMoV/OR+dnym7JO8vii80jqH/X5MpVqh6HhdtFRJElSb/tOgNfFwMbJ9duLziLpIDgBKC0j2z5xCpPHzqUL8+nLOp3wIvDeP0mLJ8bA/EyVTse3f0mSdNg2QXxNWglfX5gpOoqkg+UTgLSMzM9W2bN97OJOO31NjKFadB5J/afd9iiwJEk6bDuBN5TyoWuyFqx5ltN/Uq9Iiw4gqWvTlWdSrmRnt1rpe/M8OavoPJL6V6edUCpHyuWs6CiSJKl3TAO/lUcuz5NO7tFfqbc4ASgtA1uuPp1yLRtrtUpvzbLkUUXnkdTfukeBKx4FliRJB2sBeGcI4R/TQDZl+Sf1HD/5SwXb84U1nPiInaHZKL0k64TnFZ1H0mDwKLAkSTpILeAvQsz/gjxvTlj+ST3JT/1SgbZ98lT2761SG8ouaDXTy2Me1hadSdLgCCEyMVVnaMStwJIk6T51gL+JxLcA+6fW7yg6j6TD5ASgVKB2MzA80jqx007eZvknaanFGJifdSuwJEm6TzlwRSD5nSRJ949+8tii80g6An7ilwqy+SOnU0nzartZem3WSc4vOo+kwdRupyzMVomx6CSSJGkZicDVwJvyJN+TtCLlP/5W0ZkkHQELQKkAt3/0dE567gYWGpXnZ1nyq3gcX1KB6gtlmo1y0TEkSdLy8QngNTHE7VMXbGfsKduKziPpCFkASgVo1lM2fvjMR2Wd5E0xhtGi80gabHnePQqcZX4skCRJfJoY/jewZepC7/yT+kVadABp0Gz80JmUy/kx7Xb6p3me/GjReSQJIMsSQoBqrVN0FEmSVJzPAa8gsHHSbb9SX/FH/dIS2vzRsxhaEUvNdulleZ48veg8knRPC/MVmo1S0TEkSVIxvgi8Cri16CCSFp8FoLREYlxNfTplYV/y9CwLvxkjPmVLWlbyrHsUOM+9llSSpAHzBeAVkXAjgNN/Uv+xAJSWyKaPTDI83jol6yS/FfNwTNF5JOm+NJsl6vOVomNIkqSl8zngFWmS3UC0/JP6lQWgtARu/+jpVGudWrNZekOeh8cWnUeS7leE+bkK7ZbXBEuSNAA+G+HlhHBjJ0uYushtv1K/sgCUjrJNV57Bvpkh6vOl52ad8IIYi04kSQ8s6yTMz1aJ0aPAkiT1sU/HwG+ScGvMI1MXufFX6md+speOohs/uY7KfCQGzu20wkfyPJxbdCZJOhghRCZW1BkabhcdRZIkLa4c+CiR14bAbRMe+ZUGghOA0lFUWegQkmy80w5vsfyT1Eti7C4EyTp+VJAkqY90gMuBV4DlnzRI/FQvHSW3XLmOoWPKod1KXxTz8Jyi80jSoWq3UhbmXAgiSVKfaAF/D7wW2D55keWfNEgsAKWjYOY/jidvwfwd2WPyPLw2RmpFZ5Kkw7EwX6HZKBUdQ5IkHZk68F5ieBNwp5t+pcFjASgdBXfeNkq11p7KOskbYwynFp1Hkg5XnnePAue51wZLktSjZoF3hhh+N8A+yz9pMFkASots44fPYHSsnrTbpV+NMfxk0Xkk6Ui1miUaC+WiY0iSpEO3G3hrDPxRnsSZiYu2FZ1HUkEsAKVF1umkzM4OPyHLwitjxCdmST0vRpifq9BxIYgkSb3kduBVgfj/kkh96kIn/6RBlhYdQOonGz50NqU0ruy0kz+LMTyq6DyStFjyPCGEQKXaIXgaWJKk5e4G4JUxJh+NIWQe+5Xkj/KlRbLpw6cwNrY7aXfCy2IMTyk6jyQttvp8mVbThSCSJC1jEfgK8KulfObTMSnlU+s99isJ/BQvLZJWq0aWVZ6UZ+FlMTpdK6n/5Hlgfq5KuZKRJLHoOJIk6QflwMeANwE3dZJxVlx4W9GZJC0TTgBKi+DWD51FWspXZVny5hjDmqLzSNLR0mq4EESSpGWoDvxVhP+VB26qNsFjv5LuyQlA6QhtvXIdxx3TDBt3VH41z8OPFZ1Hko6muxaCVGodSqW86DiSJAn2An9MDH8RYNYjv5Lui9d4S0fg1o+tI5+OhEp4fNbhwzGGE4vOJElLYWSsyfhEw08SkiQVaxPwOyHnwzHQnLzIqT9J980jwNIRyOs5oRYn85w3WP5JGiSNhTKtlgcJJEkqSAT+A3hxniSXZaXE8k/SA/KTu3SYNnzoTE445s6weefqF+VZ+PGi80jSUsqyhPm5CuVKRgguBJEkaQl1gKuBtxK5ecUFW4vOI6kHOAEoHaYsT9lyx+qH53l4JVAtOo8kLbVmvUSj7s8SJUlaQvuBd8fA/woh3OzUn6SD5ad26TDcfMVZJKEzlmWl18cYzig6jyQVIcbAwlyVajUjSV0IIknSUbYR+L0Y4wdDDM2Ji1z2IengOQEoHaLbrjybz3xnmDymPx9j+Omi80hSkVrNlPpCuegYkiT1sxy4NsALy2npA2nifX+SDp0FoHSIWp3AMx5WPzfPklfHSK3oPJJUtIW5Cp22HykkSToKFoC/hfjLnVLlq1mrHscvdPJP0qHz07p0CG6+Yh1JQi3Lwytj5Jyi80jSctDpJCzMV7r7CCVJ0mK5HXg9xNeGGLYQ64xffGfRmST1KO8AlA5BngVI4o8Tw88XnUWSlpP6QoXaUIdKtVN0FEmSel0GfBnC78QkfpkYssn1HvmVdGQsAKWDdMsVZ0HIjs86yWtiZKLoPJK0nORZYGGuQrmSEYKjgJIkHaZZ4AMQ3xnh9qkLLP4kLQ4LQOkg3PSBcyjleWgRfj3G8ISi80jSctRolKg1StSG2kVHkSSpF90KvCOG8KFAqE9515+kRWQBKD2Imy8/hxhzWoQfjTH8Ot6dKUn3KebdKcBKtUOSOAUoSdJBagOfAN6RkX0jiUmcXL+j6EyS+owFoPRgQkZImMg74bUxsqboOJK0nLWaJRr1MsMjraKjSJLUC7YD7wmEv8uy9t6pFceTPPLbRWeS1IcsAKUHcPPl65jbExiZjD8bY3hG0XkkabmLERbmKlRrHdI0LzqOJEnLVQf4Uoy8PSP/UghkKy/eBewqOpekPmUBKD2AGGFkKp4dY3gVUCs6jyT1gnYrpT5fZnS8WXQUSZKWo53A+wj8FZGdqy7aWXQeSQPAAlC6HzdfsY4kjeVOK3lZjDyk6DyS1Evq82VqQ21KZacAJUk6oA38G/CHIYRrIXYmL3LLr6Sl4TID6T5s/NDpZFkg63Ah8IKi80hSr+l0UhbmK0XHkCRpudgB/AHwwjAy8vmYZZ2JCy3/JC0dJwCl+9DulEmTuCLPw6tjZFXReSSpFzUWygwNtylXsqKjSJJUlBZwDfDOmPBlIu3Jx95SdCZJA8gCUPohN162jiRPyJP852IMP1Z0HknqVVmWsDBfYaJch1B0GkmSltwm4L0hhg+kSb67kyVMXrSt6EySBpQFoPRDApCXsrNjFl4OeH5Nko7AXVOAlWqn6CiSJC2VBeBjIcZ3V9r5t7Ik5KMu+pBUMAtA6R5uuuwcQqCcZ7wsxuDiD0k6QnkeWJirUK5khBCLjiNJ0tGUA18H/jyP4aMhMDf0tDuKziRJgAWg9APyGAlwQYzhF4rOIkn9otko0WqmVGtOAUqS+tY24B+Bv9s6tXfzabtXM3zxlqIzSdLdLAClA2687ByAKSKvAo4pOo8k9Yu7pgArVacAJUl9Zxb4DPBnMcb/CiF0znt4A7D8k7S8WABKB+R5IAn5s2MMTyk6iyT1m2ajRLNRojbULjqKJEmLoQ38F/AXIYRPjZeqs/vaDabWby86lyTdJwtADbxvvO88RoY6RPKTYwwvB6pFZ5KkfhPjXVOAHZLEKUBJUs/KgVuAvydyxa/sP2nbX09uITxpY9G5JOkBWQBq4I2urFObmg8L2yZfDDyi6DyS1K9azZRWo0Rt2ClASVJP2kHkQ4TwdznxxhDIr3r2f3BV0akk6SCEogNIRbrxI+ugDgQeGWO4Gjip6EyS1M+qtQ6TKxecApQk9ZJp4BPA30TCf4YQ25MXetRXUm9xAlADLTQjIaWW5+E3sfyTpKOu1UxpNkoMOQUoSVr+5oHPAX9DjP8GLExdZPEnqTdZAGpg3XjF2dBJiUl+cYzh2UXnkaRBcNddgNWadwFKkpatOvBl4H3E8C8hyWazbIgVF28qOpckHTYLQA2s0EkI5CvzGH4TmCw6jyQNinarRLNeZmikVXQUSZLuqQ58je6Cj0/R7uxjZIiJJ20rOpckHTELQA2kW644m1131li5ovHcGLmw6DySNEhihIX5MtWhtlOAkqTloA58FXh/iHwmK8fdSScw+bRdReeSpEVjAaiBlGUJK6Yap0T4NaBadB5JGjTtVolGvcywU4CSpOIs0C3+LiHy6blWbfdwucWK87cWnUuSFp0FoAbOTZeeSzVJQj3PXkDk4UXnkaRBFCPU58vUnAKUJC29WeDfIVwWiJ/ttGt7SpU6Jzx9Y9G5JOmosQDUwIkx0siyhwC/BKRF55GkQeVdgJKkJbYX+CJwSSR+OeT59MSP7Sw6kyQtCQtADZQbLzsbQlaKefoSImcWnUeSBpl3AUqSlsg24DPAFZH4XwHmptbvKDqTJC0pC0ANlBgTiPFxRH626CySpANTgI0SQ8PtoqNIkvpLB7gJuDrCVQGuB5oWf5IGlQWgBsbNl50DMJzl4WXA8UXnkSTddRdghWqt4xSgJGkxzAJfBz4CfIZy+baQ53HyybcXnUuSCmUBqIGR5xECPwbhJ4vOIkn6vlazRKtRouYUoCTp8OR0j/leB3wEwpdvHR7dd/bCLGNP2lx0NklaFiwANRBuuGQdEaaI4WXARNF5JEnfFyMsLFSoDnUIwSlASdJBmwduBD4GfIIQb8jrpWZSy3j0424qOpskLSsWgOp7N1y6jpAHYsJPErmw6DySpHtrNVKajRK1IacAJUkPqAPsoDvt97EQ45djCHcC+eSF3u8nSffHAlB9L8QIgdXE8BJgqOg8kqR7izFQny9TrTkFKEm6lwjMAN8EPhXhXwjcEgONFRdY+knSwbAAVF+74dJzCDGQE58FPL7oPJKk+9dqlmg1U6q1TtFRJEnLQx34Ht1pv8/GGL+VxLiXEOKk23wl6ZBYAKq/BYghriXnJUCl6DiSpPuX54H6QplKtUMIRaeRJBWkBdwK/HuEzwb4apamdwD5Sjf5StJhswBU37rhknNZ94LrufGyc54HPLLoPJKkB9dslGm3W1QqWdFRJElLpwVsBL4GfBbi1yJhC5BNrt9edDZJ6gsWgOpfIefGy9adRuTF+M+6JPWEPAs05itUKvWio0iSjq55uqXfV4AvRPhmHuNtAbIVF3m8V5IWm6WI+tINH1gHrTxQTp4PnFd0HknSwWvUSwyNppTLTgFKUh+JwF66x3u/DFwX4FuhVd4+moV8bzln1VO2FJ1RkvqWBaD6UxKIlXRdiLwISIqOI0k6eFmW0JgvU560AJSkHtcAdgDfplv6/VcO3w2BaSCfvNDjvZK0VCwA1XduvPRcEpI0i9mLgLOKziNJOnSNepmh0RalUl50FEnSwWsD++hO+X0N+C+I/w1ha5JVGkCcvPi2ojNK0kCyAFTfiTGSkZ0D/CzgHklJ6kGdTkJjoczoeLPoKJKk+9cG9gO30J3y+2aErwfYBMwAncn13ucnScuBBaD6yvWXnUOekiRtXgicVnQeSdLha9TLDI20SVOnACVpGYh0t/XuoVv43UDgW0T+K8LtMcZ9ATpTLvCQpGXJAlB9JUQIbR4CPA+n/ySpp3XaKa1GiaGRVtFRJGkQZcAssIXukd7vEvkmcDOBOxLyfTGGfMIJP0nqCRaA6hs3XLqOkORJzBKn/ySpD8QI9YUytaE2IYlFx5GkftYBdgPbgW0RbgzwHbqTftvJ8ztKEyOthdt2sPq5C0VnlSQdBgtA9Y0QAzELd03/SZL6QKuZ0mqlVGudoqNIUj9o0l3SsQfYRfeuvpsPvLbEGLfHmN45lMfOTCly7Hq39EpSv7AAVF+48R/PgqyVkFZeCJxadB5J0uKIMVCfr1Cpdghe7CBJD6YDzB94zdGd6tsCbAZuA7YBdwDb05DsbhNbIc/zEAKTln2S1NcsANXzbr7kPDI6QPpQupt/JUl9pNko0W6VqFSdApQ0kDK623ZbdCf4mkCD7vbduyb5dhx47YqwO3Rfu2JgL5F2Dp2reV3+TP6MY9ZvLvqvR5JUAAtA9bwsZHz6T27kGa8+52KgTPcnm5KkPpHngWbdAlBSz+oceN31dQbkdEu8u153lXp1utN7s/d4zR147Qf2EeO+EMI0gUaMoQOxHULWHp+by+dHRhhdv+t+Yry66L8PkqQCeZhGPe+GS8/p/pMcWUlkCPCmeEnqM9VamxXHePG8pJ6VAxBCpPtZNRLJIzEPkBHIiTEPMWQxhIys0yFJ4uRFbtiVJEmSJEmSJEmSJEmSJEmSJEmSJEmSJEmSJEmSJEmSJEmSJEmSJEmSJEmSJEmSJEmSJEmSJEmSJEmSJEmSJEmSJEmSJEmSJEmSJEmSJEmSJEmSJEmSJEmSJEmSJEmSJEmSJEmSJEmSJEmSJEmSJEmSJEmSJEmSJEmSJEmSJEmSJEmSJEmSJEmSJEmSJEmSJEmSJEmSJEmSJEmSJEmSJEmSJEmSJEmSJEmSJEmSJEmSJEmSJEmSJEmSJEmSJEmSJEmSJEmSJEmSJEmSJEmSJEmSJEmSJEmSJEmSJEmSJEmSJEmSJEmSJEmSJEmSJEmSJEmSJEmSJEmSJEmSJEmSJEmSJEmSJEmSJEmSJEmSJEmSJEmSJEmSJEmSJEmSJEmSJEmSJEmSJEmSJEmSJEmSJEmSJEmSJEmSJEmSJEmSJEmSJEmSJEmSJEmSJEmSJEmSJEmSJEmSJEmSJEmSJEmSJEmSJEmSJEmSJEmSJEmSJEmSJEmSJEmSJEmSJEmSJEmSJEmSJEmSJEmSJEmSJEmSJEmSJEmSJEmSJEmSJEmSJEmSJEmSJEmSJEmSJEmSJEmSJEmSJEmSJEmSJEmSJEmSJEmSJEmSJEmSJEmSJEmSJEmSJEmSJEmSJEmSJEmSJEmSJEmSJEmSJEmSJEmSJEmSJEmSJEmSJEmSJEmSJEmSJEmSJEmSJEmSJEmSJEmSJEmSJEmSJEmSJEmSJEmSJEmSJEmSJEmSJEmSJEmSJEmSJEmSJEmSJEmSJEmSJEmSJEmSJEmSJEmSJElSkULRAdQ/nghsPv8nxqq33zBOzIuOI0nSvcVINr6KO3/jPXRWroUYi04kDbQAEYgxxEgMeYA8QgYhi4Es5KFDGjvZ6IYsi23iM3+86MiSJPWkUtEB1D9eBry5ufAG4MV0P8xJkrTshKxNMjcNK0/AtyupUDFCG8iJIQOaERpAA+JCiMwR4iw5s+nMadMp7OXyjdPAXmA3kV0hsC9CkxhbdGgTQ2y++LSi/7okSVp2LAC1KI75+dfy6hjHR7/zhScR8zVF55Ek6T6FQNJYoLxzA61THmr/J/WeNneVhIF6hFlgByFsocwWYGv18o1bA2zNA9tDZJ6cdrXaiDP7V8CvHVd0fkmSCmEBqEVRvfM2iPm55Pl5xAjB0+WSpGWq06Sy/RbmOy1I0qLTSDo05QOvsXv8vofc4+scmI0wHSJ7gY0kXN9s126sDtVv4/JNt8WUO6udvN0OgcYLnBaUJA0GC0AdseOf/xomP/gnzD76yQ9PWvWVln+SpGUtBMo7NpAszJKPTXkPoNRfEmDiwOtk4BHAzwAZIe4FdoaMDa0QvgV8p3r5xg0hhNtOf8WpM7f++XaaL/AgiySpP9nU6IiddMFPUj/r8aXh//rUh0v7dj7b81SSpGUtRvKRCXb/8h/ROvEcXFwlDawOsBO4Bfgm8FXghhjYPHlHaW7XyS14zhlFZ5QkaVE4Aagjlh1zEpU7NpycLux/iOWfJGnZC4GkMU952820TjrXty5pcJWAEw681tMtBHeEyPf2r+58tVpPvsTlG28mcAeQNX/B48KSpN5lAagjcuxL/pDStz9FTCs/QsxP7T5FOVgqSVrmOi0q225iPmtDSIpOI2l5KAEnHng9DZgDbiHyH8AXq5dv+nqAHUCr8YJTi84qSdIhsQDUEUn2bmbzX38pOfnXz//R0GqWLf8kST0hBMp3bCKd3082tsJ7ACX9sEB30cgj6d4j+GKIt0X4CvD5yuUbvgphZ4BW00UikqQeYFujI7J2/TOJtdGRyu03fS6d3fOEovNIknRwIvnwBLtf/E5aJ66D3HsAJR20BWAzcC3wmUD4D8j2BsjrL/DOQEnS8uQEoI5IHJogZNnZSXP+lKKzSJJ08A7cA7hzA60T1hUdRlJvGQbOOfB6USR+D5JPR/hM9dJbvztayxoLrRTLQEnScuKlNzpsJ73qPZR2bqC0b/vDiPnxReeRJOmQZG3K2272+K+kIzEGPB74XeBjJMklc63yz2chHB++8G+UP3JD0fkkSQIsAHUE2ltvYubnfrccWs3HhXbL4+SSpN4SI+Vdm0nqsxB8G5N0RBJgDfA84B9DDB+v3LH2TaFVPa9yya2lyiW3Fp1PkjTgLAB12NLtGxn+7PvGaDcfX3QWSZIOWUgo7dlGOnOnBaCkxVQDHg38foBPhjR5Tygl59cu3zhUu3xj0dkkSQPKAlCHLVarkHJO0phbW3QWSZIOWQiks/so7d5adBJJ/SkAJwP/i8hVEf4+JzyjfPmm8crlm4rOJkkaMBaAOiwnvvIfKe3dSmn/7kdBPKboPJIkHZa8TcV7ACUdfauA5wfiBxPiZYH4nMoVmybLV1gESpKWhgWgDkt7+9eZecbLq0lz/lGh0y46jiRJhyfPKe+4ldBuFp1E0mAYB34K+ECI8YokxudUr9g4wYd3Urt8Q9HZJEl9rFR0APWm8o6bKe3duoKs87iis0iSdNhCoLR3O+nMbjorT4CYF51I0mAYBX4ceBKRa6vthfflMVzLJZsWhtJI/QWnFZ1PktRnnADUYUmaDUIeH5I05o4rOoskSYctJKT77yTdd4eLQCQVYQx4JnBZCPxNNY1PjIRyzTsCJUmLzAJQh+7Sa0nqc4S5fY8jxomi40iSdCRCq0F512an/yQVaRJ4IfCRSHxXJJ674v07wsilm4vOJUnqExaAOmTHfeJqZn7sl4eT+tyPhKxTdBxJko5MzClvvwVyC0BJhTseeCVw1Xy5/ppOyFdXXBQiSVoEFoA6ZOU7NjF0/ZeOCcRHgVsTJUk9LkbKd24maS4UnUSSAAJwNvAHhHhliPx05fJNQxWPBUuSjoAFoA5Z6Y5NJAszp4T63Kru5xNJknpYCKT7d5Pu2wnBj0aSlo0ycCHEDwTiewLxvMplG0L18o1F55Ik9SA/5eqQhTwCnA9xrOgskiQdsZCQzO2ltHe7i0AkLUfjwK8B/xSS8NIAk5aAkqRDZQGoQ3Lsi9/Mjj/91zSd3nVmyDOfkiRJfSF0WpTvuA3yrOgoknR/zibyxxH+Fnhs9fLNSdVjwZKkg2QBqEOS3LmNib9/y9oYwiO8LF2S1DcilHdsIGTtopNI0gMZAp4LfBCyV0A+Vbl8Q9GZJEk9wAJQh6S65XoqW29enbQaJ3tMSpLUT0p7thLq8x4DltQLTgP+CMJfhxAeNnTlDaH6wVuLziRJWsYsAHVIqpu+RSxXfzR0miNFZ5EkadGEQDI3TWnfDlxwJalHVIGfJXJl3qm+KObJUMW7ASVJ98MCUAdt1Vv+mtHZNsncvkcSSYvOI0nSogmBpD7jIhBJvWgd8JcB3hUIJ41fvoFw+eaiM0mSlhkLQB208s3fZdvzX7M6aS6cTfT+P0lSfwntFqU7b3cRiKReNAa8DOIlTcIFFaILQiRJP8ACUActvWMTpe23nAScQ4xFx5EkadGVd91GaDeLjiFJhyMBLgAugfzXY8yHK1d4JFiS1GUBqIM2+vXPkszPnJU0F8Y8HiVJ6jsBSnfeTmjVPQYsqZedBLw7hPCOEFljCShJAgtAHYIb5jNCklxAjN7/J0nqQ4FkfprSvp24CERSjxsBfhN4HzE8dOzqLSR/+T9FZ5IkFcgCUAdl6pfezKoXvaGazOw+xfv/JEl9KUDSmKO0e6sTgJL6QQr8RCBe0lroPL0yNZzWLt9QdCZJUkEsAHVQqjN7KM/sPQ04w/v/JEn9KRBaTUp7tuIPuyT1kYcDfxsJL85CqHokWJIGkwWgDkp5xwYqOzeuDXm21lNRkqT+FSnt3kZoNfEYsKQ+cgLwriTyxiTGcScBJWnwWADqQR37/New+j++QOg014VWveoDkSSpb4VAafdWQrvu252kfjMJvCkS/jASjrUElKTBYgGoB5Xu2cHNb/9YGpP0iUVnkSTp6AqkM7tJ5vdjAyipD1WBXwf+PBJOq15hCShJg8ICUA8qX7WGsa9dPZTO7DnJ+/8kSf0uaS1Q2rPN/k9Sv0qB5wF/E+G8yuW3FZ1HkrQELAD1oMLCLMR4Voj5yWABKEnqYyEQWo3uJmAbQEn9KwAXhxjeF2L+6OoHN1O9zGlASepnFoB6QLUrP0t5xwZKd95+MjE/tug8kiQddVmH8p7tkHWKTiJJR9uPEnhfiNkTOlmVmkeCJalvWQDqAY1/7LP80te+SGgunB3azZLTEJKk/hdI924naS5A8H1PUt97RIz8danUfnLj+adTu/S2ovNIko4CC0A9oPKenfz1r/x2lbT0RO//kyQNhBAo7dtBaMzjD74kDYiHQvyr6hUb148MN6hdvrHoPJKkRWYBqAeUdDrUbvvecDK378Sis0iStCQCJHPTpHN7i04iSUvpXOC9c43KhY3WDENXbC46jyRpEVkA6gFlQyNk1dq5Ic+OdwGIJGkwBEKnRWnvdgcAJQ2ac4C/rFbGn1yf6zDy4U1F55EkLRILQD2gdN8OSvvvOA1YVXQWSZKWSui0KO3Zhg2gpAH0EOAvKyPh8Vkrhc98seg8kqRFYAGo+3Xc89/A2n//HOn+vWtDu5n4ECRJGhh5Rrp3h5uAJQ2qhwb4i5i0H1Hdc2rRWSRJi8ACUPcrLOzllpe9czivDj/WBSCSpEGT7r+TpDHvJmBJg+rRxPAeEtaVL99I7YMeB5akXmYBqPtV2rWJ2o3/Xg2thdOKziJJ0pIKCaX9u0gaczgBL2mAnU/kXQmcSMwpX7ql6DySpMNkAaj7l5YJhGOT+uyKoqNIkrSkQiCZ3Usyv9/+T9Kg+wng7cDKNG0XnUWSdJgsAHW/YrkKSfojhMQFIJKkgRPaTdJ9O4qOIUlFC8DzYwxvBkZql28oOo8k6TBYAOq+/fVHKe3ZRrp3+1ryfKjoOJIkLbWQZ91NwF6DK0ll4KUxhpd1SEqVyzcWnUeSdIgsAHWfjr3uy9zxqstKod08I2SO+kuSBlCWUdq7AxtASQJgGHh9SnxuFkuhcrlLQSSpl1gA6j6lMzuZ+OxfTFCqPMIHH0nSYIqkM7sJrTpeBChJABwD/H4pdM7PYsKKD36v6DySpINkAaj7VN65keqW64dDffZ4H3okSQMpBNK5fSQLs74VStL3nQb8YSlkZ857U5Ak9QwLQN23kJLVxs4M7eZE0VEkSSpGIJnbS1KfhWADKEn38KPA/42wonqZR4ElqRdYAOo+xSQh5O0fISTjRWeRJKkQIZAszJDMT+MIoCTdy3MDvDKGvFxxM7AkLXsWgLqXqZ9/G5Wdt5Du3bE65B3/GZEkDayQZZT23QHR+3Al6YeUgVcEwk/nncjElduKziNJegCWO7qXSpxmz8+9bSjEeCp5XnQcSZKKE3PSfW4ClqT7sQL43bScPLzVblH60Mai80iS7ocFoO4lndtDbdM3pmKpco4TD5KkgZbnlPbuwB+ISdL9OpfIb8eQryxlPjtI0nJlAah7Ke3aRGnrjUOhVV/tpeeSpMEWSWd2E9oNvAdQku7XT0bCy/KYlCqXOwUoScuRBaDupbRvFyFyfNJcGC46iyRJxQok9RmShRn7P0m6f937AEN8WsxL1K64teg8kqQfYgGoe4lpiXxo5BExBAtASdJgC4FkYZakPotT8ZL0gFYDbwlJ59QYfcyUpOXG78y6lxAz0vn9J4cYS0VnkSSpUCGQ1Ge7E4COAErSg3lcgFeTUKte4VFgSVpOLAD1A9a84C3s+Mj1STqzZ5UXnkuSBKHdJJ3dg5uAJelBJcCLiDwrRCh7H6AkLRsWgPoBsTnN+LveeEwsV84iWgBKkgSR0vQuyC0AJekgTBJ5XYTTfdiUpOXD78n6Acm+nZR2bZ6KcHLRWSRJWhZiJJ3ehT8Yk6SD9kjglTGEauWKTUVnkSRhAagfUtlxK6Vdt40mzflxLzuXJIluAbh/FyHPik4iSb0iAC8MMT41eH2CJC0LFoD6AeUdG8iHx9eFTqdadBZJkpaLZG4foVXHRSCSdNBWAK8lD8dVL3MKUJKKZgGoH5DOzEFIHkYI5aKzSJK0LIRA0pgnmd9v/ydJh+ZJhPgrpVI1DH/w9qKzSNJAswDUD4hlSOamVxMd1ZckqSuQNBdI6jN4PYYkHZIU+PVO1nhUJ2tTcyuwJBXGAlB3m3rRm9j6v/6qnCxMT3rRuSRJBwQIjXmShVkcAZSkQ3Yy8IqQJMMx+PgpSUXxO7DuVmnMMbz95mMpVU92AlCSpLsEQrtJMj9ddBBJ6lU/HWL+9JzA0OW3Fp1FkgaSBaDuVprdTXn/rpWEcHzRWSRJWl4i6ewecBOwJB2O8Qi/meT5sTlp0VkkaSBZAOpu6e5tpLu3jtBpjXvCSZKkH5TO7IHcKzIk6TA9gRCfe/ptN1O7bEPRWSRp4FgA6m7Vzd8ladVXJq1G2TuOJEm6h9gtAEN0AlCSDlMV+LUNp5x5enShkiQtOQtA3W3VnXvJRqYeBrFUdBZJkpabdHYPZBaAknQEHgq8MC/HpPJBNwJL0lKyANTdvhojIWuf7vSfJEn3ltRnSZrz4OSKJB2uBHhB6HBu8EYFSVpSFoC62/jbPhKSuX0rwA3AkiT9gACh3SBZmMEflEnSETkjxPCLeZqmlSs2FZ1FkgaGBaAAOOYX30jtxq+OJc2FKaIFoCRJPygQWs1uAWj/J0lHIgA/m2bZw4LPHZK0ZCwABUA6P0PSrK+NpcoJFoCSJP2QuyYA67PYAErSETs5wguyJEnLTgFK0pKwABQA6cxuSjN7VgGris4iSdLyEwjtJkl91osyJGlx/Eya5+el0csAJWkpWAAKgNLe7aR7tw+HrD3s5eaSJN2HPCOZ349H1iRpUZwCPL8x1AjplTcWnUWS+p4FoDj2V95KZeN3SJrzE6HdTIvOI0nS8hRI5qch7xQdRJL6xXOqjdpZpU4VvvyxorNIUl+zABRhYY5n7ZshH5k8i+jFRpIk3Z90bpqQZUXHkKR+cQYx/EwplKluPq/oLJLU1ywARbIwy59/fDqJSXqq9Z8kSfevOwGY4SIQSVoUAXheJ7ZO8vuqJB1dFoAindnDxKf+XxLazWOLziJJ0rIVugVg8AiwJC2mhwBPCzGn6kZgSTpqLABFqTnD0PX/HpL5/aN4sbkkSfcracwRWk0HVSRp8ZSBn82TdNInEUk6eiwAxcKpj6AzsWostBujRWeRJGk5C+02oTFXdAxJ6jePDTE+KcScyuW3F51FkvqSBaAI7SaxVFkb0/Iq8OdukiTdt0DI2iT1ORwBlKRFNQ48B0Il0C46iyT1JQtAkSzMkDTmjyFJJu3/JEl6AFmbpDFn/ydJi+/HAqwrOoQk9SsLQJHO7CaZ3Tse8nzEBxpJku5HgNA5UAD6hilJi+3ECM8YKU9SuezWorNIUt+xABxwx7zy7ZR2baG0b2eNTqvkA40kSfcndAvA+pwD85K0+ALwk/Ot6VXBx1RJWnR+Zx1w6e4ZTrnpu5CW1oasU3QcSZKWt7xDqM/64zJJOjoeRuDxfpOVpMVnATjoWnW++nfXl7La6BlFR5EkqRckjTnwh2aSdDSMAT+RJJRqV2wsOosk9RULwAGXNGYZ+dZnUuC4orNIktQLkvosIbcAlKSj5KI8cpJ3LUjS4rIAHHDJ/DTlnbcmIWtNFZ1FkqTlL5DUZyHL8N5cSToqTiZyvv2fJC0uC8ABl87uoXzH5iRpLgwXnUWSpGUvQFKf704A2v9J0tFQBZ6ak1crl7sNWJIWiwXggMuSBBZm0lCfrxSdRZKkXhCa8wcmACVJR8kTEpJT3QYsSYvH76gDLj/2NPLVJx9DYLToLJIk9YKksUDILQAl6Sg6AXhC0SEkqZ9YAA66kEBSOo6kNIY37UqS9CACod0gdFpFB5GkflYCLs7ytFy+9Lais0hSX7AAHHChVYd2YwUhjBSdRZKkXhCyDqG5gJcAStJR9Zg05KckwSEFSVoMFoADLmnMkTTmx4mxWnQWSZJ6Qp6RNOeLTiFJ/e5kQnwkFoCStCgsAAdcMrePZH66Rp6VnGSQJOnBhTwjNBZ825Sko6sMrKeShOqHNxSdRZJ6ngXgAFv5i2+ntHsLyezeSsg6RceRJGn5C9xjAtAGUJKOskfTzo7DRxVJOmIWgAOsFOfYsOk2KFePI+ZFx5EkqQcEuGsCUJJ0tJ1JDOuIkF66tegsktTTLAAHWWuBsd+/qpJXh08qOookSb0i5BlJ0wJQkpbAOPAY8kgpaRedRZJ6mgXgAEubdWq331QmSY4pOoskST0jzwjtRtEpJGlQPDEpJZU0dRmIJB0JC8ABFpoLpDO7U2I+VnQWSZJ6RYiR0LIAlKQlsi7LOamTFR1DknqbBeAAC415ktm9SciykaKzSJLUS0K7AblPo5K0BE4MsA5g5EO3F51FknqWBeAAC/VZktm9gU6rWnQWSZJ6RQRCq2kBKElLYwh4+HD1BjqZ64Al6XCVig6g4pTm9hHr8yFpNcpFZ5EkqZck7QYhy4hJiW4lKEk6ih7TaJ5bC+D9C5J0mJwAHGAx5hA75dBupEVnkSSpl4R2E/IOhKKTSNJAOJsYVxP9gYskHS4LwAGWrVhDZ+WJK2JIakVnkSSpdwRCq0HwCLAkLZXVMXBm9IcuknTYLAAHWKwOE6tDK7EAlCTp4IW7JgAtACVpiUwBZ5NEqh+4regsktSTLAAHWCQQY5wiJC4BkSTpEIS2E4CStMTOC1lSJs2LziFJPcklIAMsZB2IcZxApegskiT1jkDotA5MAAZcAiJJS+IhOQyFQLvoIJLUi5wAHGCh0yLptEaIFsGSJB2SThtyp1AkaQmdFJK40uVLknR4LAAHWGjVCa2FGkS3AEuSdAhCp0WIFoCStIQmiJzu0LUkHR4LwAGWtBYIzYWKEwySJB2akHUg8w5ASVpCE3CgAPzYrUVnkaSe49HPARaadQIhcYJBkqRDEICYd+8BlCQtlQQ4tTlepzo7RLPoNJLUY5wAHFDnP+dPCc0FQnMhYAEoSdKhidECUJKW3qm1maHhokNIUi+yABxQt6zcQ3XDLRBjhehFGpIkHYoQI6Hj/IkkLbFTYwgWgJJ0GCwAB1TeybghxhArtfGis0iS1HNiJLRbuI1SkpbU8YTo84skHQYLwEHV7jD0998uxVJ5rOgokiT1luAdgJJUjGFgTdEhJKkXWQAOqJBlVDf9T0paGi06iyRJPSdGQqdddApJGjRDRE4sOoQk9SILwEGVd0jm95Riko4UHUWSpN4TIesUHUKSBk0NWFt0CEnqRRaAAyppt0nnZlLwEl1Jkg5ZhJBbAErSEgvAsVnaZujSLUVnkaSeYgE4qDptksZCAgyBW4AlSTo0EbKs6BCSNIhWJ3m5kqf+EEaSDoUF4IAKWYvQWkgh1orOIklSrwkxEjwCLElFOCZEhpxhkKRDYwE4oEK7SWguJCHGaneSXpIkHbwIHgGWpCKsonsXoCTpEJSKDqBiJO0WJI2EPK8UnUWSpJ4TIXgEWJKKMAVUiw4hSb3GAnBAxU4LkjSQZ/4zIEnSIYsuAZGkYkwQPAIsSYfKI8ADKuQZZB0gev5XkqRDFeOB91FJ0hKrEJkoOoQk9RoLwAEV8g5J3gkhWgBKknTIYoQ8w3t0JWnJpcBk0SEkqddYAA6qPO9OLsToPwOSJB2GkHsHoCQVIAXGiw4hSb3G8mdQ5Vn35QSgJEmHIXanACVJSy0FxooOIUm9xgUQAyrkHcgTiHnRUSRJ6k0WgJJUhAQLQEk6ZBaAAypkGdAJIeZOAEqSdKgiBH+IJklFSIChokNIUq+xABxUeUYIwSPAkiQdLicAJakICVArOoQk9RoLwEGVd7q/Or0gSdJh8A5ASSqQBaAkHSILwAEVsg4xRvAIsCRJh8cfoklSUapFB5CkXmMBOKiyDiHPIffhRZKkw+MEoCQVJC06gCT1GgvAARWyDngHoCRJh88jwJJUlKToAJLUaywAB1TIMyIQfHiRJOmQhRh9D5Wk4jgBKEmHyJ+cSJIkSZIkSX3MAnBA/X/27jvM8rq++//z8z195pwzdSsLu0sRRY1Ro7HALruLGo3A2mLBljvtTvKLuVNuY2LinWjUWGLvJaLRYKXagWUL2BELqKBIZ3ubPqd8P78/BlSUsnW+c+Y8H9c114LxIq/F2TPn+zrvz+cdkxzk8sTgt4AkSQcrhkAM3qIhSRlpZx1AkjqNR4C7VMzlISSENPX8kiRJh8ICUJKyYgEoSQfJ8a9ulcsT8wVI/BaQJOnQWABKUkYsACXpIDkB2KViLg9JHkLiBKAkSYfCazQkKSvTWQeQpE7jO9duleThrmPAkiTpYAWPAEtSdqayDiBJncb2p1slOWKShxCcAJQk6VBYAEpSFlIsACXpoFkAdqmYyxHz+Rg9AixJ0sELEJ2il6QspMBE1iEkqdP4zrVLxSR/1wSg3wKSJB0SJwAlKQttiGNZh5CkTmP7062S3MyXR4AlSToE3gEoSRlJIYxkHUKSOo0FYLdKkruWgIQ06yiSJHWimOSyjiBJ3ahtAShJB88CsEvFJE+a5GN0AlCSpIMXwswkPf4YlaRZ1oK4L+sQktRpLAC7VExyTgBKknSoQpj5OSpJmm3TwP6sQ0hSp7EA7FIhX4RiOSXkWllnkSSp84SZZVqSpNm2L8JU1iEkqdP4zrVLpYUiabEcSZJm1lkkSeo4AWLOOwAlKQN7Q2A66xCS1GmcAOxSsVAilnrSGMK09xdJknSwAjgBKElZ2AVhEtzELkkHw3euXSrmisRiTxuC4/OSJB2kGALROwAlKQvbk9iajM6ySNJB8VWzW+ULpOWeFPDTM0mSDloAjwBLUhZ2xCTXanmTuSQdFAvALpUWCrSr9TbEiayzSJLUcQIuAZGk2dcOsC2m0HrJCVlnkaSOYgHYrZI8ae9QK6Tt8ayjSJLUeQJ4BFiSZtsUcHvWISSpE1kAdqmYyzG98uFt2q2xrLNIktRxQiDmC1mnkKRuMwnclnUISepEFoDdqpBn8o8e0Qqt5mjWUSRJ6iwRQkLMF7MOIkndZhTYlnUISepEFoBdKsnneEgIMTSmRrLOIklSxwmBWChCzDqIJHWV2yJhzCWGknTwLAC71Em7h5g+4SQIoUHwB6gkSQcjhkDMl7KOIUnd5ueROBH99EWSDpoFYJfacv7fEEs9xFJPJPhtIEnSQQnBI8CSNPtuCjGdDg4wSNJBs/npYrHUQ1ruaUcLQEmSDlzEOwAlafY1gJsICdMvWJl1FknqODY/XSwt9hBLvU0Svw0kSToYMZeHXC7rGJLUTfYDP8s6hCR1qnzWAZSdWKxAkkxCaAM+xUiSdIBivogT9JI0q3YDN2cdQpI6le9cu1jMF4iF0jiBZtZZJEnqKPkCTtBL0qz6WYhhJOsQktSpfOfaxWIuR8zlR4kWgJIkHbg4c/9fkgM3UUrSbLmWFhO+7ErSobEA7GqRGNhLTKezTiJJUieJhTIx8fYMSZolTeA6imlsTbqASZIOhXcAdrFkepzYbu0KaXsy6yySJHWMCLFQumsCUJI0C3YB18cYaP/JsqyzSFJHsgDsYvndWyGX3wM4AShJ0gGLxKITgJI0i+4khp8Tso4hSZ3LI8BdLOYKxHyxFQuldtZZJEnqJDMTgHmvAJSk2fGDQBwh+qIrSYfKArCLtXv7afUtiGmx7BIQSZIOQlooE3MuAZGkWfItiM2YOAIoSYfKArCLxUqVtDoYyRc9AixJ0gEKQCx6B6AkzZLdwLUxBBovWJl1FknqWBaAXSyWq6S1oTQm+fGss0iS1ElioWwBKEmz42ZCuB6n/yTpsFgAdrG01EOrb7hNEkayziJJUqeIIRCL5axjSFK3+C4x7ib1ygVJOhwWgF0sLVWYPvYhTdJ0Z9ZZJEnqGEluZgJQknS0pcAWYkgJFoCSdDgsALtYKPYw8sr1jWR64tass0iS1ClikiMt9WQdQ5K6wZ0BfhBCZKr3hKyzSFJHy2cdQNmJlV5OWLGS0JzeTkggpllHkiRpjoszE4Dl3qyDSFI3uC5N+BlAODvrKJLU2ZwA7GLbP/DPtIeW0a4NNmLOLliSpAcUgV9MAHocTZKOsi0hMt54/vFZ55CkjmcB2OXS2iBp78AkSa7lg4wkSQ8sJjnScq8/NiXp6BohssXXWkk6Mhz76nLtSi+k6Wg+hOng94MkSQ8slyN6B6AkHW3XEvhx1iEkab5wArDLpfkyMVfcHWIczzqLJEmdICb5uwpAx1Ik6SjaXGw0d06XilnnkKR5wQKwywUiIba3kbZGIGQdR5KkOS4Si2Vi3gdSSTqKRgNc1igW4NnLss4iSfOCRz67XH77TdBu7yLiBKAkSQcgLfUSk1zWMSRpPvthDPzQQWtJOnKcAOxySdqG3no7VqqNrLNIktQJYrkHchaAknQUXdE7NrGjnfe1VpKOFAvALteuDdNcuCJNSxUnACVJeiAR0nKVmOS9AlCSjo49BL4y3ttD67nLs84iSfOGBWCXS6t1mkuPT2O+sC/rLJIkzX2RtFK9awLQBlCSjoLvQriW4P3kknQkWQB2ubRcZ/yRT2sTw7ass0iS1AnSSo2Y8xplSToK2sAXY6u1N3jVgiQdURaAXS6WKjzhDx/SSqbGfpp1FkmSOkFaqUFiAShJR8HtBL4acjmmnntc1lkkaV6xAOxySV8fNz34twhp606nGSRJegC5PLFc9fCvJB0dG2IafxZ9lZWkI84CsMttffcraS04llb/kinyxZb3GUmSdF8iMVcgrVTxZipJOuJGgYuSkEw3ctNZZ5GkeccCULTrw6S1wZEYknH7P0mS7kOEmC+Qlqv4gZkkHXHXEMOVkQjPOyXrLJI071gAirSnRlqq7Awx3edIgyRJ9+OuCUD7P0k6olLgwkC6O+sgkjRfWQCKUCiTazdvp93ciQ2gJEn3IToBKElHx88hfCmGhOlzjs86iyTNSxaAonjdFhjZNRaLlbGss0iSNJfFfIFYrmYdQ5Lmm4tzbX6a+NmKJB01FoCiPbiE6YeeFtOe+hjBCUBJku5LWq4SiyUHACXpyNkGfKadj+009cVVko4WC0CR1obYd+ZfpbFQ2p51FkmS5qwIaW8/MclnnUSS5pPLQuCaQGD6xR7/laSjxQJQpD11/uhpvWlI2zc50SBJ0n1LewcgyeEIoCQdEfsgfJzIdBo9iSRJR5MFoGiVK2xYMEAytvd6QvCJRpKk+9Cu9hNzuaxjSNJ8sRHiVRFonLMi6yySNK9ZAIpd576OqeUPo12pjcZCse1UgyRJ9yaSVvvBI8CSdCSMxcjHCIy5+VeSjj7fwQqA9sBSQowTcXxkIsTJOk7gS5J0T0mOtKdODAHn5SXpsG2KxA0xzTqGJHUHC0ABkNaHIaa7CsRdQD3rPJIkzS2RWCiTVvyMTJKOgLEIH0lC2O/0nyTNDo8AC4B2T420WL49tBq3E3y0kSTpHiJ3FYA1vCpDkg7bxhjDZdHFH5I0aywABcCO//4PJh9y2lha6t1rAShJ0q+LxGKJtKdm/ydJh2c/8MEkxP2NF67MOoskdQ0LQP3CyKueEdPqwG483CRJ0j1FSAtl0p4+bAAl6bB8OUYu96VUkmaXBaB+4fEhEHO5G32wkSTpN8VKjbTUA9Gfk5J0iHYCHwiB8ekXevefJM0mC0D9wq4FQ+TG9/0QQivrLJIkzTXt+hDkclnHkKRO9rlIelV04ECSZp0FoH5hesXDSEs9u9NiueEUoCRJvyJAuzZEDBaAknSIbgTeH0imG+eckHUWSeo6FoD6hfbQMtrDx45TKI7Y/0mSdE/t+hAkvnWSpEPQBs5thfADHzMkKRu+i9UvtOpDNPsW7iaNW7POIknSnBIC7doQJE4AStIh+DbwsXyMaeMc7/6TpCxYAOoXWoUqk4sfsj00p28huAlYkqQZkVgok/b2Zx1EkjrRGPCukLZv9RlDkrKTzzqA5o7dn3gdDy7TnHzw7+7P72tATLOOJElS9iLEUg9pTw3vyJWkg/aFSLw45hIaL1iZdRZJ6lpOAOoeQhPS3oHtfjonSdLdImmph7RSh2gBKEkH4VYibw2EUVIfPSUpS74K6x7afVVCmv6QGJtZZ5EkaU6IkbTcS9rb5wCgJB24NvC+JBa/FcjReKHTf5KUJQtA3UNz8Ykkk6M/jvnCdNZZJEmaK9LqALFYwQZQkg7Yxkj8rzTXiFPnLM86iyR1Pe8A1D00lpxIzBXGi83pkVxjqupRYElS1wuBdt9CohuAJelAbQfeEAjbp1/g1l9JmgucANQ9tPsX016wfG8g3pJ1FkmS5oQQaPcvhODbJkk6AG3gQ0mIG0NwalqS5grfyeoeGr11tr/59TtpNW7wQUeSJIBAq38hJE7FS9IB2Ay8J42hOfWCE7LOIkm6iw2P7mHPx17H8asfmqb14V0kfntIkhQLJdq1IcACUJIewJ3A69IQ7synrayzSJJ+hQ2PfkMMCe2e+i0xBH9qS5K6W4yklRppTx0XgEjS/WoA74whXpHEyPiLHpR1HknSr7AA1G8IaYtkauKaEONE1lkkScpUjKQ9NdJKDaIFoCTdjy8Q+GAgtKfPcfGHJM01FoD6Da3+RcQQtqalHgtASVKXi6SV+swEoP2fJN2XHwV4dWzH3fm8j5iSNBf56qzf0Fq4ktYxJ0/GYmW70w6SpO4WaNeHiYUyNoCSdK/2A/8+ReF7SYDxP1iRdR5J0r2wANRvaNcHmTzxkXtDq/ETgheeS5K6WJLQGlyCi7Ek6V61gfcF4vklGky90K2/kjRX+W5Wv6GR9jN83qsmYwg3+cAjSepqIaE9sAQ3AEvSvfo8kf8khukm+ayzSJLuh6/S+g17P/Uqao9ZTSz3bk+mxtOQNmwBJUldKeZytAYWQQieAJake/phIP6/GMLOKZd+SNKcZ7Gje5e2ibn894npSNZRJEnKRIykPXXS3n5s/yTpHrYB/9xoFr+fz7eyziJJOgAWgLpXIUaSybGfUijvzzqLJEnZiKTVQdJKDZdiSdIvjANviCH9Qr7QYPy5D8o6jyTpAFgA6l41F69kevlDJ9uV6lanHiRJXSlG2tUB0p6aPwolaUYb+BDED0DSbpzj0g9J6hQWgLpX7b6F7D37/+wPrcZ3vfhcktSdAu36MLFYwQZQkojA5yK8PhImGi/w3j9J6iQWgLpXe88+k6VveH4rFko3xlwh6ziSJM2+XI7WoBuAJekuWyL8E4TtjRe8I+sskqSDZAGoe9V43hpaQ0toDy65nSSZzDqPJEmzLSY5WkPH2P9JEvwA+LtCjDemAOFtWeeRJB0kC0Ddp9CchrT1fWK6K+sskiTNtlgo0R5YknUMScraTcDfFUqt7zRjQuuclVnnkSQdAgtA3afQbkFMdqSV2p6ss0iSNKtiJK0Nkvb2ef2fpG62HXhFPhYvb04XabzI8k+SOpUFoO5Tc9FKJh/6hKlYrNyYdRZJkmZVTGn1LSQtV7EBlNSl9gKvStPkc02acfqcFVnnkSQdBgtA3afYM8hJ7375ZDI9+W2CFyBJkrpLu28BabkXogWgpK4zCvx7SvhISNJ244VO/klSp8tnHUBz17b/eQPFJz4ZYrwjNCbS0JhMvAldktQVkhztwSWQy0PazjqNJM2mMeD1MYR3hxibjXOOzzqPJOkIcAJQ96vVv5hW38KfAy4CkSR1jZgvzmwA9vivpO4yHuEN7XZ8a2zHacs/SZo/LAB1v8LEOGFq4kcxyW11+k+S1B3iTAE4uNT+T1I3GQfelAbekuTCVPNFln+SNJ9YAOr+FYs0jn/ERFodvDXrKJIkzYoIabWfdnUw6ySSNFvGgDemSfKmhDDh5J8kzT8WgLpfrcGlnP3hf50O7eZVLgKRJHWFGGkNLiWWe3EEUFIXGCXwuhjTN4V2e6LxAhd+SNJ85BIQ3a+JP3wzX73p+0C8ISmUWqExmfcosCRpfou0BpeQlnrcACxpvtsL/HuMvIeQTDn5J0nzlxOAul+jTw40l5xAa/jYW2JItmedR5Kkoy6Xn1kAkvNzUknz2k7gH0Oae1cSLf8kab6zANQDahZ7SWO8npDc4vSfJGlei5FYrNAaWobHfyXNY7cBf5OQfpik1Zh64Yqs80iSjjILQD2g4r6tjJ/6nKl2ffgW7wGUJM13abFCa8gNwJLmrR8Df9YmOa9NrjV1zglZ55EkzQILQD2g1uASTv7Hp7dDu3VV1lkkSTq6Iu2+YdLePmwAJc0zEfg6xD+a3ln8UkjTtHGOCz8kqVtYAOoB7TjvLex4/BnEYun6WKxM+0AkSZq3YqQ1tIxYrPjjTtJ80gYuhvi/CsX813MDkzRf5J1/ktRNLAB1QJqLT6C5+PjbY5Lc7gORJGn+CrSGlxELJWwAJc0TU8AHCPw5Ifyk2WjTfslJWWeSJM0y19vpgEz3DhFielOZ8DNC8KIQSdI8FInF0swG4JBAbGcdSJIO107gzTHwHtIwFspNpp/9oKwzSZIyYAGoA7Ln468jwvTy311zSzI1DjHNOpIkSUdWhLRcpTV8LESn/yR1vJ8AryLlggCt6Rd5358kdTOPAOuAPaQ3B2m6iRAciZAkzUORtLef1sAiPP4rqYO1gcuAF7cKrc+m+bQ17X1/ktT1nADUARt/9FMhhBvSUs9IMjEyQAhZR5Ik6ciJ0Fpw3F0LQCwAJXWkMeCjwH8At7f/4EH4yb0kCZwA1EFoLT6e5rKTbwF+bPknSZqPmgtX3LUARJI6zk1E/jYheXkg3D59jlN/kqRfsgDUAQsP+W0WfOLNO9Nyz/UEv3UkSfNLLBRpLVgGSS7rKJJ0MFrAlyPhnHQ6/6F2m4mpc7zvT5J0T7Y4OmB3/tv/olErkvb2f5fgaQJJ0jwSI2lPfWYDsMd/JXWO3cAbI+GlSWh9PZZCbLx4RdaZJElzkHcA6qBMr/wtQrPxjZgvjYfGZD3rPJIkHRHxrgUg/YtxAYikDpACVwOvpZ37YpLQnNqfg784NutckqQ5ygJQB2X6uIcTC6Xtyfj+W3LTEw/3LkBJ0nzRGlpGrPQ6AShprtsHfBx4W6O54MZiYTdT56zIOpMkaY7zCLAOTv9SRl78tjtCTL9L4rePJGmeCNBcegIxV8g6iSTdlxT4TiT8SSS8HLgxvrTGtOWfJOkAOAGog7L1469l5bcvTNtDx/w0TI3F0G45AihJ6ngxX6K5cOXMApDUa24lzTm7gHOB97Zj7qZcaEe3/EqSDoYFoA5eCETYAmEU8B5ASVJniylpdYDW0FKP/0qaa5rARuA/E8LGSJxuv/A4t/FJkg6aBaAOWnPR8cRC6Za0UtuVG9tdB4cAJUkdLEbafcO0+xdBTLNOI0l3ux54L4FPtGnuSigx9YKVWWeSJHUoC0AdtOaiFTSWnLSzb9uNV0Pw7IEkqbOFQHPhctJST9ZJJAlgJ/Ap4L2lJP64HUOcfsHJtLJOJUnqaBaAOmjbn/ZcVr7prybSSvX7cWLkOaHt2xFJUgcLCc0lJ0GSeARYUpbGgEshvisk+StJ08bI8/2sXZJ0ZLjGVQfvpU8krVRpVwe+QQj7s44jSdKhi8RihebC5RB8WyQpE9PAFcCfhBhf2m6XNoS02Zg6x+O+kqQjxwlAHZK0VIEk+VEsV7eGsb19WeeRJOmQxEi7bwHtgUVO/0mabU3gGuDDEC/I56d2tloVWi9e5nFfSdIRZwGoQ9JcfBLTJzx6T9+X3vMt4MFZ55Ek6ZDESGtwCe36sAtAJM2WJnAt8NFI+GyM4U5CGsef+9Csc0mS5jELQB2S0vBDKX3l3dOx3Ht1nCi8OLSaWUeSJOngJQmNJScSCyUnACUdbQ3ge8AnIFyYEG6PxHTqhSuyziVJ6gIWgDokt7z/z1l2+tnEfOE7uT1bdwILss4kSdLBirkCzWNOhhAsACUdLVPAN4H/IYQvtJvhziQX46TFnyRpFlkA6tA1pom5wo/TSvWO3OgeC0BJUmeJkbQ6QGt4WdZJJM1Pe4HNwCcC4Yqp3dfvqgw/mOmXrMg6lySpC1kA6pC1l57A+BOeOTb4sX/+OvDbWeeRJOmgxJTW0DG0+4ad/pN0pKTALcCXIX4micm30qQ1PvWCkwCYzDqdJKlrWQDqkO1c/AiWfeJVzbRY+lZSKP5ZaDaSrDNJknTAQqC5cAVpuWYBKOlwjQA/AC6K8MUYwg0QWtPnrMw6lyRJgAWgDkPrXX9K42kvIbRbP8jv3bYVOCbrTJIkHbBcgeYxD/L+P0mHqsnMtN/lBC4OxG+00vzeEGJsvmBF1tkkSboHC0AdlmRiL2mldn1a7r0515iyAJQkdYhIWu6lufh4CID9n6QD0wJ2AN8CvhjgikByaxrTRiBH64XLs84nSdK9sgDUYWkPLGXbv7x38rg/Pu3rhPBEJygkSR0hxrvu/1vg9J+kB9ICdgLXAJcBlxPijfk0HU9DYPKc47POJ0nSA7IA1GGJQys47k9PT2Ox/LWYLzVDc7IwM0ohSdIcFiPNRStp9/ZZAEq6Nw1gG3A1cAWwKcDNAUYjxKkXnMB01gklSToIFoA6LNs+9AqWPPMvCI2p7+f23PnzQDg560ySJD2gfJHGMSdDrgBpO+s0krIXgVHgBuA7wCbgmkC8PSUZb7jMQ5LU4SwAddhyu25l6iFPuLVwx49/lExPnuxFSpKkOS3edf/fMQ9y+k/qbvuZWeJxLfAN4LvAz0nDdpKYTnu0V5I0j1gA6rC1l53Movf/U2vsd1Z9hSR5hpMUkqS5beb+v1b/IvzQSuoak8B24HbgOmbKvh9DuCkQtwLtCFj6SZLmKwtAHbat//OfJOueAzH9fjK6Z3cyOTpE8B5ASdIcFSPNJSeQ9tScAJTmnwYzk317mbnD73pmCr+fATcTwq0hxvHT04n0m0kPez3aK0nqEhaAOiKai1YC8bri1p/9kBBOzzqPJEn3KV+isfQkyBe9/0/qLJGZgm+KmYm+SWAPM1N9t971dTtwW4DbCeyKaZwuNkstgNE/XPaLf9CXs/6dSJI0yywAdUTs+J838gYYfffvrr0qmRx9EDF1pEKSNPfESFruobn4BKf/pOylQJOZYq/FTLE3BUwD48ws5RgFRpiZ6Lv7azfEncAOZrbyNmJIGmmr2Aq5Fq1zlt/j/4nbeiVJsgDUEXQBEIuVNwDvzTqLJEn3JeYKpNV+vP9Pyl6Y+YMYI0QIKdAOxBRoxxBaEVppGlvNF5KGTwDe0SdJkiRJkiRJkiRJkiRJkiRJkiRJkiRJkiRJkiRJkiRJkiRJkiRJkiRJkiRJkiRJkiRJkiRJkiRJkiRJkiRJkiRJkiRJkiRJkiRJkiRJkiRJkiRJkiRJkiRJkiRJkiRJkiRJkiRJkiRJkiRJkiRJkiRJkiRJkiRJkiRJkiRJkiRJkiRJkiRJkiRJkiRJkiRJkiRJkiRJkiRJkiRJkiRJkiRJkiRJkiRJkiRJkiRJkiRJkiRJkiRJkiRJkiRJkiRJkiRJkiRJkiRJkiRJkiRJkiRJkiRJkiRJkiRJkiRJkiRJkiRJkiRJkiRJkiRJkiRJkiRJkiRJkiRJkiRJkiRJkiRJkiRJkiRJkiRJkiRJkiRJkiRJkiRJkiRJkiRJkiRJkiRJkiRJkiRJkiRJkiRJkiRJkiRJkiRJkiRJkiRJkiRJkiRJkiRJkiRJkiRJkiRJkiRJkiRJkiRJkiRJkiRJkiRJkiRJkiRJkiRJkiRJkiRJkiRJkiRJkiRJkiRJkiRJkiRJkiRJkiRJkiRJkiRJkiRJkiRJkiRJkiRJkiRJkiRJkiRJkiRJkiRJkiRJkiRJkiRJkiRJkiRJkiRJkiRJkiRJkiRJkiRJkiRJkiRJkiRJkiRJkiRJkiRJkiRJkiRJkiRJkiRJkiRJkiRJkiRJkiRJkiRJkiRJkiRJkiRJkiRJkiRJkiRJkiRJkiRJkiRJkiRJkiRJkiRJkiRJkiRJkiRJkiRJkiRJkiRJkiRJkiRJkiRJkiRJkiRJkiRJkiRJkiRJkiRJkiTNopB1AOlw5T7wVnIRWoGhGKgAMetMkqRsRKC3WODhS5dQzOWyjiNJ9yb95V+GFCAQ0whpgDaQxhjSGGgngXYhybf+7EFPS3++/wf8w4MfkXV2SVKiCkDTAABK7ElEQVSHsgBUx0s+8FbS028n2bTs7yL8TdZ5JEnZicBQbw8PXriAXJJkHUeSfl0KNJl5ufrVv24AU7/yNX3Xr+PAGDB619cYMBZgJBL2EeJeYtgbYxwLhGYIsRVD0iQmLYhsXntm1r9fSdIcYQGozveBd5CENsDDI1wErMw6kiQpGyEEThweYnG9lnUUSToaIjOlYYOZkvDur3FgN7AL2AZsBbbf9fe7gZ1pZEcSmCCEVqGda7fy7bjp9LOz/v1IkmaJBaDmhw++g4QQoPWaCK/MOo4kafZFoFos8tAliyjl81nHkaSsRWamCMeYKQhHmSkFfw7cctfXVmArKVtJGEtnjiDHK9euzzq7JOkIswDUvJF8+K0QeUiMXASclHUeSdLsO26gn+WDA1nHkKROkDJTCt49OXgn8DPgBuDGAHdAvJOkMkbMxRjH2WwxKEkdy4/HNW/EdiS2mz9JCqXzYoz/ggW3JHWVYj7HYG8PAbdBSdIBSIC+u76O/7X/23iErRDuJJ26GbgO+OGqDRfeCnFri3RvQohXrn1m1r8HSdIBsiDRvJL74NuA8KBIvCgSH5x1HknS7IjAolqVkxYMkwTf3kjSEXb33YPbgZuYmRK8Fvg+gZtDys4wvn88VqpsetKzss4qSboXvkPWvJJ739vovaHE2CnT/xxj/DdmPtmUJM1zuRA4edFChnt7nP6TpNnRBiaB24DrmZkSvBq4NkR2hMgIEDeesT7rnJIkLAA1D+U+9DaAE2OMF0R4WNZ5JElHVwT6ymVOWbyIQs7PfSQpI3cvHdnFTBn4PeDbIfK9NGF7i/ZEhPiNNU4ISlIWLAA17+Q+9HYW9y5k6/j2f4gxvhbIZZ1JknR0HT88xDF99axjSJJ+KQITwA7g+8C3mJkQ/GGMYdee42ke+63Il5+7PuucktQVLAA1LyUfehsBVsTI+ZH4yKzzSJKOjgj0FgucsngRPYWCx38lae6KwAhwK/AN4CoC34Hw89BqTUWIm70/UJKOGgtAzUvJh95G0o6kufD/xRjfAhSyziRJOjqW9fexcmgw6xiSpIPTBLYyc1x4I3BVjFw32WjszydJ/MZTnp11PkmaVywANW/NbARmcQx8Nsb4xKzzSJKOvGIuxylLFlEvlZz+k6TOFYHdwE+AzcDlxPDD2nRt13R+Ol725KdmnU+SOp4FoOat3IffTogphORFaZq+P0Il60ySpCMnAotqVU5aMEwSfEsjSfPICPBjYBORywLhB8B2gE3rzs46myR1JN8ta17LffjthBD60zQ9L8b4e1nnkSQdObkk4cGLFjLUU3H6T5Lmr3HgWmAD8CXgukLS3JvGJF7hRmFJOmAWgJrXcv/1NpJ2ICZxfZrGj0WoZZ1JknT4IjDYU+HBixaST5Ks40iSjr4I7AO+B3wF+Gog/rRNbuzKtWdlnU2S5jwLQM17xf96J4HQ20pbH01j9GNCSZoHkhA4ccEQi2s1p/8kqfu0gZ3A14CLA2yMgTuA1uY167POJklzkgWg5r3yf72DVkxJCE9uxfSTMTKQdSZJ0qGLQK1U5JTFiynlc1nHkSRlawq4kZmpwC8Q49WkyQghxs1nrM86myTNGRaA6go9576dJITyVCt9fzuNL846jyTp8KwYHOTYgb6sY0iS5o4I7AWuBs4PhK+0c9yatkP7ax4RliQLQHWP/IffRhKSx7fS9LMxxqVZ55EkHbwI9BQKPHTJInoKBY//SpLuTRP4GfBF4AJi/G4LJoshsHHt+qyzSVImvDVbXaOQC/QWk2/lQvifrLNIkg5NAIZ7e6hY/kmS7lsBeAjwd8AFhPCJfAjPTWNcyDWXsvay87POJ0mzzglAdZXSf72dEMLJzXZ6YRrjg7POI0k6OKV8nlMWL6JWKloASpIOxhRwDfAZ4Ash5UYC7U3r1medS5JmhROA6i4tmMq1rs+F5MNhZnuYJKlDRGCwp0Jv0ek/SdJBKwOPB94MXBITXpfCo1ZdfkFx1eUXZJ1Nko46JwDVdcofeSdJSJY22q3PtdP0cVnnkSQdmEIux0MWLaS/UrYAlCQdrghsBb4AfDyNfCefz09MTozzzac+N+tsknTEOQGortObLzLRnL4znyTvCSFMZp1HkvTAItBfKVMrlyz/JElHQgCWAn8MfC4JfCBtt55SKpVqT/j6eaz94pezzidJR5QTgOpKvR99N/kk9E00mp9openvZ51HknT/cknCgxcuYKi3xwJQknS07AM2AB+JsDHEOLZ53TOyziRJR4QFoLrSwk98mH3TY+ST3FOnW63/SWPszzqTJOneRWCop8KDFy0kl3h4QZJ01O1npgg8N4R4RYDRNAY2r12fdS5JOmQWgOpa1f9+N8V8rjQ22Xhfs91+adZ5JEn3LgmBBy1cwMJqr9N/kqTZNAJcDnw4kmykHcZDsc3m1euzziVJB80CUF2t+rH3APzOVLN5fjtNj806jyTpniIwUCnzkEWLyOec/pMkZWI/8GUIH0hiuCqGOL1p7dlZZ5Kkg+I7aXW1QpLwsCWLri7mch8JIThYIklzTBICC2s1CpZ/kqTs9AHPhfipNKQfiDGeeuqlFxdXXX5h1rkk6YA5AaiuN/yJ9xPhuNHp6Qua7fajss4jSZoRgb5ymVMWL6SQy2UdR5Kku+0APgu8vx3a1wHtq9Y8K+tMknS//DhdXS/kE3bv2H1rqZB/VxLCVNZ5JEkzkhBYWK1StPyTJM0tC4E/By5IYu4VScwtf+KGSzhtw4VZ55Kk++QEoAQs+dQHSJLQt3ts8mPTrfZZWeeRpG4XgVqpxCmLF1HKWwBKkuasNvA94APA50760djun55SdWOwpDnHAlC6S+HDb6enVFw3Pt34ZDtNh7POI0ndLAArhgZZ1t+XdRRJkg7EJLAReFeEK4DJLZaAkuYQjwBLd1nY38cxg4Obi7nceTbjkpSdCPQUiwz39vpJpSSpU1SApwL/HeBtAX5r3ZcuCGu+ekHWuSQJcAJQuofax95NKZ8/ZWRq+vxmu31y1nkkqRs5/SdJmgd+CrwPwsfbsbUjnxTZtObMrDNJ6mJOAEq/Yll/L7s++PkflfK59ychtLLOI0nd5len/yRJ6mAnAf8B8ZO5kHt6iO3S6VdcmHUmSV3MCUDp1yz4n/dTKuSHd49PfGqq2VqbdR5J6iZO/0mS5qG9wP8A74T8DdCOm9eenXUmSV3GCUDp1/zl8/+UXaNju3qKxbfkk2Rf1nkkqVv8Yvqv6vSfJGleGQD+AvgctP6YEPtWOQ0oaZY5ASjdi2M/8xHq5XLp9n173zk63fiTGGPWkSRp3nP6T5LUBSaBS4A3k3A1kXTzmvVZZ5LUBSwApfuw9JMfIheS39o1Mf7ZqVbrpKzzSNJ8FoFqscgpixdRLuSzjiNJ0tH2c+CdAf475OLutBXYvG591pkkzWMeAZbuQ61S5sd/8Ic/7CkV351LkmbWeSRpPgvAglrV8k+S1C2OB94Q4cPtdnhcGsiduuHCrDNJmsecAJTuxwnnf4xcEobu3D/yifFG4ylZ55Gk+cjpP0lSl7sZeEeAc0nj3lgIbF69PutMkuYZJwCl+9FfyfOzHXt2V4vF/yzkcruyziNJ81ECLHT6T5LUvVYAr4/wwZiER1WaaVhz+QVZZ5I0z1gASvfj6qe+gMcds4RHH7P0ip5i4b+T4NCsJB1JEegtFVng5l9JUncrAc8CPjmZJH/cDqF31QZLQElHjgWg9ABWP3El3922tdXXU35XqZD/ftZ5JGk+SYBFtRqlvNN/kiQBJwFvBd4J4UGrNlxEjDHrTJLmAceZpAP13jezcKDvJXsnJt7baqeVrONIUqeLQL1c4pTFiyjmclnHkSRprvku8BqS8EUijc1rzs46j6QO5gSgdIBOWbqEY+r183sLpUuCR4El6bAlIbC4VqNk+SdJ0r15FPAh0vhKiMOP3/AF1m78bNaZJHUoC0DpAP3o7HO4fd/I6GCl8p/lfP7WrPNIUieLQL1UYqi3Bw82SZJ0n4aAfyTy4UJsPDo0Ylh9+flZZ5LUgSwApYNw/MJh/mzt6u/0VcofyCdJO+s8ktSpciGwqF7z6K8kSQ+sAJxFCP/dzBeeTwjl1RsuzDqTpA7jOUbpIJ14/sfoLZeW3Lpnz3n7J6dWO7kiSQcnAoOVCicvWkgh52eRkiQdhH3Ae4nhLcS4a/MZ67POI6lD+K5bOkhPWHkcP7zzzq39lcobS4X87qzzSFKnyScJi/tqFC3/JEk6WP3A3xPiB0l4+OOvuIi1X/VeQEkPzHfe0kH62CNP5yGLFnHSguFLa6XyR3JJ4hCgJB2gCAxUKgxUKt79J0nSoSkA64GPF9N4Jkk+t/byC7LOJGmOswCUDsF1Z76Am3bvbQ5Xe9/dWyx8M+s8ktQpCrmExfUa+cS3IJIkHabfioEPtRJe1kpCddUVF2adR9Ic5rtv6RAtqdf40U+uv3mgp+eN5UJ+f9Z5JGmui8BQTy99lbLTf5IkHRkLgdcSeQNpWLrqKxew6srPZ51J0hxkASgdos3r1vPYhz+Chyxc/MV6ufyxnNMsknS/Svkci+s1csEdZJIkHUEV4H8T4ocohEeG2ApOA0r6dTYW0mF42erf48Zd26cXVatvrxaL12SdR5LmsgXVXmrlotN/kiQdeQnwVOCjaZOntUKanHqF9wJK+iULQOkwvLDSQ623hx/ccOONg709by4X8mNZZ5KkuSYC5UKeRbUaCU7/SZJ0FD08wPvzafJH+Zgrrb7ioqzzSJojfBcuHQFPvOx8ekvFnh/eue2dO8fG/1c7TbOOJElzyvLBAY4b6M86hiRJ3WIEeEuM4W3A/hAim9euzzqTpAw5ASgdAVed8Uxu3LV7YlG1+pZaqfjjrPNI0lwRgd5SkYW1atZRJEnqJnXgH0OIbw4hLmmFFmsv/ULWmSRlyAJQOkKeeOwSvnfpxuuGenveUinkJ7POI0lzQRICS+p1yvl81lEkSeo2JeAPgffnY/7kXNLgiRs8Eix1K48AS0fQY77yGaqlYvX6HTvfs2N0/EUeBZbUzSIwUCnz4EULKeRyWceRJKmbXQX83Vg5983e6TZb1qzPOo+kWeYEoHQEffspz+H2vSNji6r1N9bL5WuzziNJWconCUv66hQt/yRJytoTgQ9Vp9pPCZFk1YYLs84jaZZZAEpH2MqhIa55+d9cO9zb88aeYmE06zySlIUIDPZUGKj0ELMOI0mSAB4GvB/4gzRp50674vys80iaRR4Blo6Cx375Myzo7a38cNv2t2wdGfmzVpr6Z01SVynmcjx48UL6y2ULQEmS5pbtwP9LYvyvCM1N656RdR5Js8AJQOko+NbvPYfbRkYmF9aqb+mvVK4Owf5PUncZrvZSL5Us/yRJmnsWAf+RhvAykqS82uPAUlewAJSOkgU9Fb6z6aqfLqj2vqG3WNiXdR5Jmg0RqBQKLK7XSPzwQ5Kkuaof+NcY4/8lxt7Vl1+QdR5JR5nvzKWjaPXlFzHU21u65o7bX3/n/pH/02i3/TMnaV4LwIqhQZb192UdRZIkPbAp4O0h8npg/6Z167POI+kocQJQOoo2rj2L20f2TS+q19460NNzldMwkuazCNTLZRbWqllHkSRJB6YM/E0MvDqGOLhqg5OA0nxlASgdRSEEKuUiP7tz522L6tXX1UqlnVlnkqSjJZ8kLO2rU8rlso4iSZIOXBH4cwivJTK8yjsBpXnJAlA6yjatOotHrVjG449dfumCau/7y4V8O+tMknSkRWCwp8JAb4+LPyRJ6jwF4I8J4fXAQktAaf6xAJRmwVdXP51rtt3eOqa/9u7h3t4NucQ/epLml1I+x9K+OnmvOpAkqVPlgZcCbwiwyO3A0vxiCyHNkm8+6TncOTK+bVGt9m8DPZWbfUSWNJ8srFaplctO/0mS1NnywIsi/EeEhauuuDDrPJKOEAtAaRYdPzTAa57y5K8tqlXf3FsqTWadR5IOVwR6i0WW1Ov4wYYkSfNCDngh8HpiGD5tw0Wc7jSg1PF8ry7Nssdf+jn6K+XaDTt2vf32fftf2mi3/XMoqWMlIXD88BBL6rWso0iSpCOrBXyYGP4phrin0Mqz4clPzzqTpEPkBKA0y77+pGexbWRsdHGt9oah3p6rE+/LktShItBfqbCg2pt1FEmSdOTlgf9FiK8OhIFWwV2GUiezAJQysLBW5arrb7h+Ub326r5KeWfWeSTpUBRzOY7pr1NwsZEkSfNVAfhTiP8SoL56w0VZ55F0iHzHLmXgK6f9Pqc/7KE8ZvmKLy2s1d7dUyi0vDhfUqdZWKvS5+IPSZLmuwLwlzHGV0DsXeV9gFJHsgCUMrLx9DP50Z13tpbUa+9ZWKt+sZjLZR1Jkg7ILxd/1PAaA0mSukIR+OsIL0tzlE5zO7DUcSwApQz1lcvsHBvbubiv/urh3p4bgg/SkjpALgSW9tWpFApO/0mS1D16gH9I2vxZbKeF0y6/IOs8kg6CBaCUoS+c+lQevrifr7/jM1cvrtf+o79SHs06kyTdnwgM9FQYdvGHJEndqA94VZIkL4r5VnLaxs9lnUfSAXLcSJoDnrTpYqqlUuX6nbvedMuevX8x0Wj6Z1PSnFTM5Th50UIGKt79J0lSF7sT+MuBwd0X7t61gCvPOCvrPJIegCWDNEc87tLzKRfyx926Z++5t+/bt6bZTrOOJEm/4diBfpYPDOCNBZIkdb2fAn+SEjblYmTTuvVZ55F0PzwCLM0R33jSM9k1Nn7r4nrtVcO91Zu8D1DSXBKBWqnE4nrN8k+SJAGcBPxnQnxECJFTN1yUdR5J98MCUJpDlvb1ccm6Z1y1qF59bX+lPJJ1Hkm6Wz4EjumvU87ns44iSZLmjkcDb0kJKwu5lN++8OKs80i6D36GL80xq6+4iOFqpfzjrTtfd8vevS8bbzRz/kGVlKUILK5VOXHBMInjf5Ik6Z4i8OkY05dB2BHygc2r12edSdKvcQJQmmM2rTmbO/aOTC2qV9+8qF67tJjLZR1JUheLQKWQZ2lfHznLP0mS9JsC8MwQkj+YyuXIt1wTJs1FFoDSHHRcucK28ck7F1dr/7KwWv2JEzeSspKEwJJ6nWqp6NZfSZJ0X35O4FvFkFoASnOUBaA0B3161e+ztNrDVWc84zuL+2qvHezt2Zd1JkndJwL95TKLatWso0iSpLlrH/BqxkrfyrUCX33KM7POI+leeLZQmqNuOvc8Nqz6bYZ6KtenMfZONpuPb7TalvaSZk0xl+P4oUGqpWLWUSRJ0tzUAt4ek+Q9lNL2lrVnZ51H0n2wTJDmsC3rnsFYozW9oFZ769K++pfK+bxH8CTNmsW1Gn2Viq87kiTpvnwReFtI08aW08/KOouk+2EBKM1x+ULC2PjkzoXV6v9bXK9dl0/8Yyvp6IpAvVxiSV+NxCtIJUnSvbsOeBWBHSH6caE019kkSHPc5ac+nUf+7oO44Y6d1yyq11+5sFrd4fO4pKOpkCQs6+/HqWNJknQfdgL/3AiF7/dP7WPTumdknUfSA7AAlDrA+wYfwcOWL+EhixZ9fnG99sb+nspk1pkkzV8La1UGejz6K0mS7tUExP9oJ+1L8kxz8VNfmnUeSQfAAlDqEJetejo37d7dXlKrvW9pX/3caqmYZp1J0vwSgWqpyNK+Oklw1liSJP2GFPhYTNP359OkfeUaN/5KncICUOogG9ecxZ6pqfEFtfrrlvb1XVrK57OOJGkeyScJx/T1USkUso4iSZLmpkuB14UkN75prcd+pU5iASh1mP5KlX3jY7cvqPa+0qUgko6k4d5ehqu9WceQJElz07XAP0G8DXJZZ5F0kGwOpA7zpSc+iaFqlSvXPePqxbXaPy+sVbcHj+pJOgwR6CkWWdbfR87XE0mS9Jt2AK/avOy07yYxsnntmVnnkXSQrO2lDvTzj/wPazZ9nqWDAz9ttVppo9VeNdFseh5Y0iHJhcCKoUEGeipZR5EkSXPPJPDaNuFjK0ZuSTe78VfqSE4ASh3qitVPZ/ueve3BSuUDS/vq59bLpdSNnZIOxXDVo7+SJOlepcBH0zR9f0jbrS1r12edR9IhsgCUOthQPJHptDW6oFp9zTF9fZf2FApYAko6UDNHfwsc299H3qO/kiTpN10e4d9DkhstuSNM6mgWgFIHO/+Mh5HPJYxNTd+5oFZ95dK++rXFnH+sJR2YXAgs6++np1j0wwNJkvTrro3wjwHuIEQuX/3MrPNIOgx+3C/NA6fe+FN2fX8zQ/WBp922b/8H79i3f2kafZyXdP8W1aqcsGDYxR+SJOnXbQX+tNhufP5HK0/hzhMflnUeSYfJUSFpHrjyhJM4ZsEwD12+4MtL6rV/W1ir7vd5XtJ9uXvr7zEe/ZUkSb9pBPi3JDS/2MznLf+kecItwNI8cdNHPkn9Wc+Mgz291wLlRqv1uMlm0z/jkn5DPgmsGBxgoKcn6yiSJGlumQbeEuGdMSStzWs89ivNF04ASvPIFaefyd7JiemB3p63HNPf94l6uZRmnUnS3LOgWmVBtZp1DEmSNLekwP8E4lsCcXrLmmdknUfSEWQBKM0zW9auZ7LR2DvU0/uvx/T3fdXNwJLuFoFqqciy/j7v/ZMkSb/ushj510jYt3mt5Z8031gASvNQPV9mtDF168Jq9RXH9Pd9r5TzJLAkKCQJxw70U/GDAUmSdE/XQPyHGMKtuaSddRZJR4EFoDQPfWn1U6mVynzj1pu+v7Be/YelffVbcol/3KVut6heY8h7/yRJ0j3dArwiaYTvJSFyxenPyjqPpKPARkCapzasPpPHH38s6x+36NJF9dr/W1yr7gse+ZO6UgTq5TLH9NXxdUCSJP2KfcCrSsX8V2MpYfOa9VnnkXSUeC5Qmsdu/sinaT/pLAZ7Kj9KkiS22ukTJxqNfNa5JM2uYi7HCcND1EqlrKNIkqS5Ywp4PUny/nYa081rzso6j6SjyAlAaZ67/PSzGZ1qNgcrPe9a1t/34YHeHi/1kLpIAJbU6/T3VLz3T5Ik3a0FfDBE3hHaaXPz6ZZ/0nxnASh1gQ1rzmSyOT3a31N+9bH9fZ+tl8v2AFIXiMBAbw9L+2p48FeSJN0lAp+F8JoYwtimdeuzziNpFlgASl1i49pnMNVo7Rjs7fnHYwf6LuspFrOOJOkoqxQKHDfQT9FN4JIk6ZcuBf4J4s7Na8/OOoukWWIBKHWRLesexESjedNQb+/fHzvQ9+1y3usApfkqCYFl/X3USiWP/kqSpLt9O8DfAzdtXrs+6yySZpEFoNRFQngo9WKFW/bt/sHCavXvlvX33VBwMkialxZUqyysVrOOIUmS5o7rgb9rpPkf5oLXgkvdxgJQ6jJfXf00ThhYwPMe/PAti+q1lx/TV789l/hSIM0XEaiWShw70Ec+8eY/SZIEwO1EXj7ZGNuSD02uWPOsrPNImmWO/khd6KZzz2Py6U/i+PrgDVOxvYfIqrHp6YrHBKXOV8zlOH5okHq5nHUUSZI0N+wBXhHyuU/nc0W2ePRX6koWgFKXuumj59H/vPXUy6Xr8rlcsx3jqeONRiHrXJIOXQCO6e9jcb1OcPhPkiTBBPBqkvAhiO3Na1z6IXUrz/1JXWzj2rOZbKXN/krPe5b19b1zYbW3YWcgdaYIDPb0sLTP8k+SJAHQAN5BEt4LNDefbvkndTNXgEpdrpS2mA5xor+n8h9pjEPtNP3DXeMTTgdLHSQCPYUCxw32U8zl3PorSZJS4GMxxDeEGCda0U8HpW7nq4AkAFZvuJhCLlm8Z2LibTft3vMH+yYnfX2QOkQuSThxeIiFNbf+SpIkIvDZCH8NbPXOP0ngEWBJd9m09iwarda2wUrlH44b6P9CrVzKOpKkA7S4VmO42pt1DEmSNDd8CXh5sPyT9CssACX9wuZ165lst24Z7O35u+UDAxt7i0WPEkpzWAT6KxWW9feRePGfJEmCTQT+lhBv3mz5J+lXWABKuoeFvX2MTk7eMNzb+9fHDfR/o6dQsASU5qhyPs/ywX5Kea/tlCRJfCtG/jpJkusbk+2ss0iaYywAJd3DBY9by3Ctxu379v9gQa36suMG+r9XKeQtAaU5JhcCxw70US+X/fMpSZJ+AOFlRcL3m+3IN5727KzzSJpjLAAl/YYvn/o0lvfXuXr/nm8vrFX/z3ED/deX85aA0lyysF5jUa2WdQxJkpS964G/bpca32wCV609O+s8kuYgC0BJ9+qyNWfzmMEBNn/+uk2LarW/PW6g/5ZSzmOGUtYi0FepcKz3/kmSJLgF+Nv8+PjGpFFk8zrLP0n3zicHSffrjI0Xs3x4MNywY+dz7tw/8rbb9u5b0mynWceSulIEKoU8Jy9cSF+55FSuJEndbRvw1+00/UyAeOUZz8w6j6Q5zHEeSffr5+eeR/35z6Be6/1xIbInhOTUsenpnjRaPUizLZ8krBgcZKi3J+sokiQpW7uBf2q0G+eFQHrVGc/KOo+kOc4CUNIDuuUj57H0ec+KvcXytcV8Mgrh8WONRiVaAkqzamm9zjH9dYJHfyVJ6mZ7gf+XxNx/5UK+deUZz8g6j6QO4B2Akg7IxrVnM9lqNPvK5Q8s6av/29J6fZ/3j0mzIwIDPT0sG/DeP0mSutx+4NWR+P52aDU3rTsr6zySOoQTgJIO2M0f/STLXvS8dKBU/W4uzxTwuLHpRtk5QOnoiUBPocAJC4boLRSyjiNJkrIzAvx7zId3BUJzy5r1WeeR1EEsACUdlJs/eh7HvPhZaX+59N18Ljcd4fFj042SJaB0dBSShOOHhxjoqWQdRZIkZWcM+PeYpu8IKY3Na9dnnUdSh7EAlHTQbjr3kxzz4ue0e8v57xaTQjPC48enG0VLQOnICiFw7EA/S+o17/2TJKl7jQOvDyF5e0jClOWfpEPhHYCSDskVp6+n0WCqr1x++7L+vjcsqdcnvJtMOrKGe3tZ2ufSD0mSutgk8MYkhreGNE5uWnN21nkkdSgLQEmHbMOas2i008l6qfKfy/r73ry4Xpu0qJAOXwTq5TLLB/spJP6oliSpS00B/xljfHObdHLjOss/SYfOpwpJh2XD6U+n0W5O1MulNy7r73vr4nptyhJQOjzlfJ7lg/30FAp4tF6SpK40BbyNGP4DmFhUPT7rPJI6XD7rAJI6291l3+kbLhofqPS+HigS419tGx0rxWh1IR2sXBI4bqCf/krF8k+SpO40Dbwb4utiYHzL2mdknUfSPOAEoKQjYuPas5lqN8f6eyqvOXag/x1OAkoHLwBL6nUW1qpZR5EkSdmYBt4dia+GMLrFhR+SjhC3AEs6Ym4+9zyOe/Hzp3uLxW+U8vkcMf7OeKNRcIpJemARGOrtYeXQIHnv/ZMkqRtNAW8PgX8nhBG3/Uo6kiwAJR1RN597Hse95HmNnmLxm6V8jhh5zHijUbQElO5bBGqlIicOD1MpeDuHJEldaAJ4cyS8HsKo5Z+kI80CUNIRd/O557H8Jc9t9hQL3yoVCm3gsWPTloDSvYnMLP04ccEQ9XLJe/8kSeo+48CbwszXuOWfpKPBM0aSjooNp59Ns81Ef7nyn8v6+l67tK9vNPFOQOk35JPEpR+SJHWvMeB1SQxvDITxTZZ/ko4SJwAlHTU3nXsex730Oa2eUuE7pXx+Cvjd8elGyZJDmhFC4Jj+Ppb21XFpjiRJXWcU+HeS+LYY0qlNbvuVdBRZAEo6qm4695Msf8nzW7VS8epCLj9OCL873miUY7QGlBZUe1kxOEjOpR+SJHWb/cCrYzt9JynTW9Y9M+s8kuY5C0BJR91N557HsS9+Qbteqny3mEvGQgiPG59uVFJLQHWpCPSVy5wwPEQ579IPSZK6zD7g32Lg3SShsWWdk3+Sjj5HDiTNig2nP52p9nRjsLf83mP66/987ED/7kLOzyDUfSLQUyiwcmiAnkLBe/8kSeouu4F/iSG8G2hsWbM+6zySuoQFoKRZc/nqs5hstJoDpcoHlvbV/+9xA/1bi7mcBYi6SjGXY8XQAPVy2e99SZK6yzYi/5DE8L4kpWn5J2k2eeO4pFm3duMlVPPlZG9j/JnbR0ffdNuefSsmWy1fkDTvJSGwcmiQJX11v98lSeoutwL/QC79NGlIN6/x2K+k2eUEoKRZt+H0MxlvT6XH9tU/t6RW+4vlgwPXexRS810AlvbVWVyvWf5JktRdbgD+Mm2mn4otyz9J2bAAlJSJy1efydbR8XjmYx/7pYW12p8tHxz4QW/RElDz13C1yrL+fpJg/SdJUhf5PsQ/Gy9Pf54S0YUfkrLiDfySMnPzueeRf/JTuWn0tluWVAe/W8znHz7VbC5rtNtZR5OOmAj0/2Ljrz92JUnqIt8E/mKqVbxqYX6cy1c9N+s8krqYYwiS5oTf/fJnqZQKD9s9PvGOW/fuWzMyNZV1JOmw3b3x9+SFC6iXS064SpLUPTYBL0tC8oONl1wMb/lQ1nkkdTkLQElzxqmXn08xlztpz8TkW2/du++peycmvaZAHa2Yy3HigmGGenuyjiJJkmZHBL4c4W+A67esXZ91HkkCvANQ0hxy5bpn0krjT4d6e/5y5dDgZxdUe9t+SqFOlUsSlg8OWP5JktQ9UuBzEP4iRMs/SXOLBaCkOWXz2vW003jLQKXyf5YPDpy7qF5rBpcmqMMkIbCsv49FtWrWUSRJ0uxoAh8BXgbx5s3r1medR5LuwadqSXPS2k0Xk09yA/snJ//vHftHXrZ1/0hvGr1BTZ1haV+dFYMD5BI/Z5MkqQtMAO8KkTcAezZZ/kmagywAJc1Z67ZcQiGXVPaPT/35nftHXnnn/pHBVppmHUu6XwuqvZwwPEQh58ZfSZK6wF7gtcTwXggTm9edlXUeSbpXFoCS5rR1W75AOZ8v7Bsff8HWkdHX3LF//7GNVjvrWNJviMBApcxJC4cp5wtZx5EkSUffHcC/hJB8nBibm9aenXUeSbpPFoCS5rwztnyJvkpPsmNk79N2jI6+6ba9+x880Wz6AqY5IwLVYpEHLRymVirhYXVJkua9G4CXTzemL8klSfq1Jz8n6zySdL+8nEjSnHfZaU9lZGosfcyDTvzC4nr9T1YMDXyrViplHUsCZsq/Sj7P8cODVC3/JEnqBt8B/qQQmhdXigXLP0kdwQEaSR3jrM2f55r9I5xQ6334nvHJ/7xt774z9k1O+jqmTBVzOU5YMMRwb2/WUSRJ0tEVgcsh/F3It34QGwU2n+Gdf5I6gw/OkjrKy274EV/7+Q/oq/Ss2Dsx9frb9u179u6x8bxTV8pCPklYOTTI4not6yiSJOnoagOfizG8oh3aN/W1e/jSk34v60ySdMAsACV1pNUbLyafJAtGJidfdce+kT/ZPjpaSqM1oGZPEgLHDfazrK+PEPxxKknSPDYNfBjCvwE7NrvsQ1IH8olFUsdau+li8rmkNjI5/Zd37h95+db9IwPNNPWFTUddCIFj+uosHxwgsfyTJGk+2we8KRLfSWB0y5pnZJ1Hkg6JTy2SOtpTN3+eYj5X2DUx9fxto6OvvmPf/uVTrZYvbjqqFtdrrBwaJJ+4S0uSpHnsFoivSmPySQKNK538k9TBfEaW1PGecuWXWFCthlv37Fq7Y3T8jbfv2/+o8UYj61iap4arvZwwPEQxl8s6iiRJOnq+D7y8VRq/NGkX4pWr/iDrPJJ0WBxdkNTxvnLqU9k9ujd+d9uey5fUa3+4cmjwK/2Vcpp1Ls0/Az0VVg4OWv5JkjR/pcBXIvGl16754FfzzV7LP0nzghOAkuaNV958KV/5ySh95cKxeyYn/u2Offufv2t8ohxdDqIjoF4ucdKCBfQWC/gdJUnSvDQNfDJGXpXkuHVsG1z9vPVZZ5KkI8ICUNK8c/rGiyjkcgP7J6b++s79+/9m2+hYvZ06EKhDE4FqsciDFg5TK5Us/yRJmp9GgHdGeEuAPZvXrs86jyQdURaAkualdZsuoZTPl/dOTLxo2+jov965b2TpdLvti54OSgR6CgVOWjhMf7ls+SdJ0vy0Ffg3Ih8FpjavW591Hkk64nwWljRvPXXLl+mrlJPb9+/9vZ1jY2+4Y9/Iw1wOogMVgXI+z4kLhhnsqWQdR5IkHR3XEXlFmuNLCbQ3n74+6zySdFRYAEqa19ZtvphtuydZOFB+1K6xidfdvm//k/ZNTroASfcrAqVcjhMWDDHc25t1HEmSdOSlwOURXpEQv5sS2OKxX0nzmAWgpK7wxK9eQLlUWLp3YuKVd+zf/5JdY+O9qctBdC8iUMzlWDk0yKJaNes4kiTpyJsEPhYjr0lI79i07plZ55Gko84CUFLXOH3jRZQLxd494+N/sm1k9BXbRkYXNbwXUL8mnySsGBpkcb3m94YkSfPPDuBNaRrfnyRh1GUfkrqFzzaSusoZmy6hWinkd4xM/P7OsbHX3LFv5OGTzWbWsTRH5JKE5YMDLK3XCMEfkZIkzTPXAf+SklwSiK0ta8/OOo8kzRrvwZLUVS5bfSZjzbS15vGPuWhJf99LVg4NfqmvXE6zzqXsJSFwbH+f5Z8kSfNPCnyVyEt37xu5ILZbln+Suk4u6wCSNNt+/l+foPr7v8eu0b3bFtbqG4v5XKUd40Onmq2CtwJ2pyQElvX3sWygn8TyT5Kk+WQS+AiRv28l/KReLLHlSc/IOpMkzTqfciR1tbVbPk8+SXr3jU/8ybaR0X/cNjK60HsBu0sIgWP66hw3MEAu8X95SZLmkZ3M3Pf3XmDsyjMs/iR1L590JHW9p1z5JarlUn7b/v1P2zE69ro79488dKLRyDqWZkEIgSX1GisGB8gl3oohSdI8ch3wzzFJP08MrS1rLP8kdTefdiR1va+c+lRCs9i66usfuviYvvoLjh8avHCgp9LyE5L5LQCLazWWW/5JkjSftIDPE3hhabR9YZrLWf5JEk4AStI9rN5wIaV8fsHu8Yn/c+fIyP/eOTY+2EpTXyznmQAsrtdYMTRI3vJPkqT5Yh/wXmJ8K7Bz8zqLP0m6m8+0kvRr1m7+PJVSsbRnZPQZ20bG/nXbyMjJU61W1rF0hARg0V3Hfgs5d2FJkjRP3AD8e7vd/nQSkukt3vcnSffg2IMk/ZoNq54Ordb0+t8+5VPL+uvnLB8c+GK9XGpnnUtHxqKa5Z8kSfNIG/gK8MJCqf3xfMHyT5LujU8/knQvfvpfn6Bw1lPZNt7YurRWvaJYyCdp5GFTzWYpZh1Oh2xRrcrKoUHLP0mS5odR4H0B/iFXSK5vTQc2r7X8k6R74xFgSbofMUbWbv48tUKxvG109LnbR0dftX107PhpjwR3nIXVKscPW/5JkjRP3Ay8lqT98RSm6vk2Xzz1D7LOJElzlgWgJB2Ap131ZY7pHwg/2bb1cTvHxl6zdWRkzcjUtNcodIiF1Sorhwcp5XI4wSlJUkdLgS0Q/zlNkq+FGNMta9ZnnUmS5jwLQEk6CKdedgHFfG7ZnomJf9g6MvqS3WPjtXa0UprLFtaqHD80SNHyT5KkTjcKfCzCG3Np7tar1l1EM3wo60yS1BEsACXpIJ2x6RJ6C/nKtrHx52wbGXvl9tHRB021Wr6gzkF33/ln+SdJUsf7KfAfIYnnxcjk5jXe9SdJB8Pja5J0kC5bfSakyeSzl5/y38cN9j9v+eDA+X3lUiPrXPqlACyq136x8MPyT5KkjtUELoL4vHZofSRNLf8k6VA4sCJJh+j5V2/gh1u3s6ReG9wxNvYX20fG/mr3+PjCVppmHa2r3V3+rRgccOGHJEmdbSfwHkJ4dwzszLUiG89Yn3UmSepIFoCSdJie/rWvUikU87ft3f2Uu7YE/85ks+mEdQYCsLheY/ngIIWc/xNIktShInA18JrYDl8k0NpyxtlZZ5KkjubTkSQdps8/4cnkaLW+cellXzh2YOAFK4YG/muwp2ciCX7GMptCCCzpq7PC8k+SpE42AXw0Rl7wyFsefnG70LT8k6QjwKdTSTqCVl1xIT3FYm3n6Ng520dG/37n2PgJjXY761jzXgiBpX11jhvoJ59Y/kmS1KFuBt5I5BOEMLJ5rcWfJB0pFoCSdIQ9afPnOaZeDzfs2vW43ePj/7p1/+ja0enpfNa55qvkV8q/nOWfJEmdqAVsAF7Thq8lkG5Zuz7rTJI0r/ikJElH2KWrnk4jxPjznfu+vmxg8MUrhgZes7Ba3ZFLErfRHmFJCCzr72P54IDlnyRJnWkn8PoAL26F4pXl2LL8k6SjwAlASTqKnn7Vl+kpFvK37t27Zvvo2L/sGBt/4kSjYVN1BOSShGP7+zimvw/vW5QkqeOkwNeJvDYN6WVA88q1z8w6kyTNWz4xSdIseNRXPk1fsbJsx9joy7aPjv7RvonJwVaMvggfgggUkoTjBvtZWq8TLP8kSeo0e4FzibwlhduTadj8tPVZZ5Kkec2nJkmaJadtuIiFvb3FW/bsfdqO8bF/3Dk2/pipZtPX4YMQgWIux/LBARbXqpZ/kiR1lghcA7wuxPB5YHrTOhd9SNJs8BiaJM2SLWvPhhAa3/69Z1+4YnDgBcsH+9890FPZ7/HVAxOBUi7H8UODLK7XLP8kSeosI8D7IDwvlNLPxSRa/knSLPLpSZIysHbjJZTyucr20bH1O0bHXrFrfPzh062Wr8n3IQKVQp6VQ0MM9/ZkHUeSJB24CFwHvClEPgtMbFq3PutMktR1nACUpAxsOP1M0pib/O5T/+C85YMDzztuoP+/+yrlcafaflMEegoFThwetvyTJKmzTAD/TQjPW7Xmrz6W5JuWf5KUEZ80JSlD/9/13+Dbt93Jwmpv9fY9+569Y3Ts73ZPTDzUacBf6i0WOWF4iL5KOesokiTpwETgx8BbifGTrcBYNY189Qy3/EpSVnzAlKQ54H9d8w0+/Nu/y2kbLnrQ9pHRv905Pva80anpvjTGrKNlql4ucfzwEPVSie7+NyFJUscYBT4DvHlxY8+PdxfqXL7u2VlnkqSuZwEoSXPI6k2XMFguV36+e/fTd46O/989ExOPnm61uvK6hoGeCscPDdFbLFj+SZI099294ffNSUwuisQJl3xI0tzRlQ+VkjRXbVp9JoWYTn7/gxd+5oThoeceN9D/tv5KeVe3bQoervZy4oJhyz9JkjrDHuAdwHOvXzhwXqBt+SdJc0x3PVFKUgc544rPU8rni3eM7nvyjtHxV+yZmPjd6VYrn3WuoymEwOJaleWDAxRyuazjSJKk+9cGvg68GeKXgenNa5+RdSZJ0r2wAJSkOexzd9zIs770RZ648pilO8fG/2LX2Pgfj0xOLWrPw7sBkxA4pr/Osv5+8okD6pIkzXE7gI+EyLsm0sbtvzV8Mh9+5COyziRJug8WgJLUAVZtvITj6335H2zftmbn2NjL94xPrJpoNotZ5zpS8knCsQP9LO2r023HnSVJ6jANYDPwppAmV4TQam5c53ZfSZrrfMqSpA7xkbifP3zzW1j72N9ZsHXf/hftHB//i/2TUye00jTraIcsAsVcjhWDAyyqVQmWf5IkzWU3A++NhHMbSdixZHqaC5/ynKwzSZIOgE9aktRhnrTpEpb21ZJrt+14xK6x8ZftmZh49nijWY0ddiw4ApVCgZWDAwxXe7OOI0mS7tsocAHwjpCm18QkSTevXZ91JknSQbAAlKQOteaKC8knSc8dI2NP3zU29rf7Jqce02y3O+byvGqpxPFDg/RVyllHkSRJ9y4FrgbeSggXA+Ob17jdV5I6kQWgJHWwdVdcwtVbb+HkocXLdoyN/dmeick/GpueXpLO8WnA/kqF44cHqRaLzO2kkiR1ra3ARyC8bzrltkoONlr+SVLHsgCUpHngiZdfwIq+/ty127c/bufY+N/sm5x86lSz2TPXyrUADFd7WTE0SCWft/yTJGnumQS+AryFJP0agfbm1S75kKROZwEoSfPIY77yGXoKhb5to2PP2Tsx8bJ9k1MPnSvHgpMQWFKvcexAP4VcLus4kiTpnlLgOuDdMcZPEcK+AHjXnyTNDxaAkjTPPHXT5znrpBM594fXnrx9bOxP94xPnDPeaCzK8lhwPklY1t/H0v4+cm76lSRprtkB/A+R95Ym2zc0Szk2Pml91pkkSUeQT2GSNE89efPnKSa54k379j1x99j4X+2fnHzKVKvVM5sZIlDO51k+0M/CWpVg+SdJ0lwyAXyVwDtjDFdBnN7ixJ8kzUs+iUnSPPa8b1/Bp6/9IacuX953+7596/dOTP7leKPxqGa7PStncHuLRVYMDTLYU8n6X4UkSfqlNnAN8B4CF8TAvpB63FeS5jMLQEnqAv85+lP+bmg1j7r4bcfuGh3/o32Tky8dbzSWH81jwf2VMiuHBqmWSln/9iVJ0i/dApwbCB/5ozVn3fK+Sz/D1578B1lnkiQdZRaAktRF1m68mEW1avL9O7Y+cu/k5P83Mjn1zMlWqx6PYBEYgAXVKsuHBtz0K0nS3LEPuIjAuwjJNcTY3rzm7KwzSZJmiQWgJHWhx1/2Wcr5fOWOfSPr9k5M/fXI9PSqRqtVPJx/ZgTyIbCkrz6z6TdJLP8kScpeA9gS4e0xhksDTG1ZZ/EnSd3GAlCSutTTvvl5fnjzXpYN9w5t2zf6/L0TE/97rNF4SDtNk4P9Z0WglMtx3EA/i+o1Epd9SJKUtRS4DngfMX4mxvzOJGmwae2zss4lScqAT2iS1OWe990rePiSxeHTV//ghB3jYy8enZp68WSzeVwa4wH/jOgpFlgxOMhQ76wuGZYkSb8pMnPP38eBc1sx//MkpPHKtWdlnUuSlCELQEkSAA+++JOsXrwst2nrzY/YMzH5J2PT08+aarUWPND9gP2VCiuHBlz2IUlS9nYA50P4YC6G76chtjet9bivJMkCUJL0ax75xU9TK5XKd4zsf+K+ick/G5ue/r1Gu1379f9eCIGF1V6WDw5QdtmHJElZGgW+DLwX4teBqc1rn5F1JknSHGIBKEn6DV+OU/zeO9/I4x/80Ort+0eePDI19ZcTzeaprXa7GIFCknBMfx9L++ou+5AkKTvTwFVE3hXhsqSQjrYmC1z1lDOzziVJmmMsACVJ92ndpi9y+eaNPOJRvzO8c2z0mSNTU38e4beW9fclC6u9BJd9SJKUhTbwfeB9AS5s0ruzwBibnPqTJN0Hn9wkSQ/o5dt+zBsXP4STLvjY8kqh8Pz+nsqLgAcDB70xWJIkHbII3AB8hMAnt5/+97csuOo1XHnq87POJUma4ywAJUkH7PQrzicJaWjH/Akxcg7wAuBELAIlSTqaInAj8MkIH09JbwiEeKUTf5KkA2QBKEk6aKuvuIBATNKYPAh4EfB8YAX+XJEk6UiKwG3Ap4CPRuKPgXSLxZ8k6SD5oCZJOmSnbbqEQMjRap1C4CXAc4FlWeeSJGkeuBP4LJFzW632D1pJu71gYogvnL0u61ySpA5kAShJOmynbvosSZrkieGREF4CPBNYjD9nJEk6GBHYAVwIfCRErokxaWw+46ysc0mSOpwPZpKkI2b15RcRiKU08GjgD4GzgQVZ55IkqQPsAi4h8pEYwreJTG1Zd3bWmSRJ84QFoCTpiFt1xQUAZSKPh/BS4KlYBEqSdG92A18C/ovIN4DJzevWZ51JkjTPWABKko6Kp191Ffsnt5GEXDkSH0sILwGexszRYEmSut1O4ItEziWJ3wyt3GSrf5yrHvP8rHNJkuYhC0BJ0lG3esNFpDmKoc2jIb4YOAtYmnUuSZIysA34ApGPQvwWML15nVt9JUlHlwWgJGnWrN5wAUkMhXbgt4FzgGcAx+LPI0nS/HcHcBGEj6cpVye52Ni8Zn3WmSRJXcIHLknSrDtt4+eIIeaTdv7hRM4h8CzgOCDJOpskSUdQBG4DPgfhvBDD9yA2N7ncQ5I0yywAJUmZ+P2LLmdXeTe5NJfLl3KnMDMR+CxgJZDLOp8kSYchBW4GPgucl6Tx2iTSauUCm9euzzqbJKkLWQBKkjK3esP5pOTzCemJcaYEfDbwEKCUdTZJkg5CA7gB+BzwuTSX/JiQtq5ctT7rXJKkLmcBKEmaM1ZtuIi0nSRJLj0G4u8DzwceA1SyziZJ0v2YAq4BzoNwSS7Hre00pt7xJ0maKywAJUlzzqorLiIp5GhPtxaEwJOA5wGrgL6ss0mS9CtGgSuBT0H4Cu3mdpJcdKuvJGmusQCUJM1Za664kOZ0jnwxrafwBIgvBJ4MLMg6mySpq+0BLiPycQJb2jn25Vuwad36rHNJknSvLAAlSR1h1YYLIYQyMT6amYnAM5nZHOzPMknSbIjArcCXgE+m8O0AE1tc6iFJ6gA+NEmSOsppl19IGkM+l8RTmCkBnwE8DBeGSJKOjiZwHXBRiPGCNM91IaW1eY3HfCVJncMCUJLUkU6/7GKSEEIrtBcDZwDPBZ4ADGSdTZI0L+wHvgl8KhK+2oI7EohXrT0761ySJB00C0BJUkdbu+GzpD/aRPvBa2tJkjwuEp8F/B6wDMhlnU+S1FFS4E7gq8DnQuSqtJLuD82EzavXZ51NkqRDZgEoSZo3TrviQkKkCJwMnAU8EzgFKGedTZI0p00DNwAXABfGyI+IcXrLGR7zlSTNDxaAkqR5Z82GiwiQtGAJxDOYWRryeKCOP/skSb80AnwN+GwkXJqL3BGhvWmdx3wlSfOLD0GSpHnrtA0XsmfXPgaG+vqSEB4DrAeeDKwE8lnnkyRlos3MNt/LgAuI8esLCj37djQn2LLOiT9J0vxkAShJ6gqnXXEh+RjyLdKVgfBk4GzgsUBf1tkkSbNiFLgauCREvhQTfkab5uYz1medS5Kko84CUJLUVZ506UX8vD7NMePFfuDRwDOAJwEn4NIQSZpvUuBm4HLgfOBb+Q/GPa0/D2xetT7rbJIkzRoLQElS11p72UWEQK4R4vEBzmBmacjvAP1ZZ5MkHZZ9wHeAi4hcFkL60xBie+OaZ2WdS5KkTFgASpK63qpNFzJxfUrviUk9hceGmQ3C64DjcYOwJHWKBvBz4FLgogDfHv9ZOtJzcsLm1euzziZJUqYsACVJ+hWrL78ACLkYOCbCqgBnAk8AluARYUmaa1JgO/AN4POEsJHIrQFam9a6yVeSpLtZAEqSdC9WXXY+lXzCeCutJEnyIGaOCP8+8EhmFof4M1SSsjMC/AD4InAphB9BawJybF67PutskiTNOT68SJL0AE6/7GKIIaS5dj+BRxF5KvBk4CQ8IixJs2Ua+BmwAfhigG8H0r1AunHtM7POJknSnGYBKEnSQThtw4VEyCWEpQFOjcQzgdPwiLAkHQ1tYCtwJfBliBtDCHdGaG5esz7rbJIkdQwLQEmSDsGqqy4kGYdYoBwjJwKrgCcBvwssApKsM0pSh4rM3Ot3NXD5XV83tGJxqpIf4fLVz8s6nyRJHccCUJKkI2D15RfSJlQS0gcTwmpmjgg/ipkyUJL0wHYC32Om8LsshHh9GpOxLS7zkCTpsFkASpJ0BP3+JZ9j13CeymTamxIeCpzOTBn4W8CCrPNJ0hyzB7gWuAy4FOJ15fGB0f3Dt/LNx78462ySJM0bFoCSJB0lT9hwIdOFlN5mqEJ4BLCWmTLwoUA//hyW1H0isBe4gbtLv8D3863C/kjKFU86M+t8kiTNSz54SJI0C06/7GKAEJN0IMJvA08AVjMzGTiMdwZKmr9SZib9fgRcAWwmxu+Ry+2j3U43r3tG1vkkSZr3LAAlSZplq2fKwCTNpdUQOQU4lZky8NHMlIGFrDNK0mFqAbuB7wMbgKuAa5MYR4B0o6WfJEmzygJQkqQMnbHp0+QSwkSj0AscH0I4jZky8DHAUqCYdUZJOkBNfrm9dyPEzTHys3xMRiMxbjxjfdb5JEnqWhaAkiTNEY/Z8EW+3XwopxW/15PEeGycOSa8FngscBxQwp/dkuaWaeAW4NvAlRG2JMRbivnGWDvNseH0Z2edT5Ik4UOEJElz0pM2b2aytY1cKJeI8ZhIfDhwGjNl4CnAIP4clzT7IrAf+Akzpd8WAlfnYrx9OkkbiydKnP+0p2edUZIk/RofHCRJ6gCnXvZZ2jENxaQwEAknEXgssAZ4ODPTgR4VlnS0tIDbgGuBLcDXCPy0HdNdgZBeudb7/CRJmussACVJ6jCrNlxIm4RALAbiijCzSfg04HHACTgdKOnw7QduZGbKbxPwvXbg56WpyemdS5bzw99+Qtb5JEnSQfDhQJKkDveoiz9OoVAOxVJuKBBOAX6XmfsDTwGOAXqzzihpzpsE7gR+AHwNuCbAdSS5HbRy6aYznpZ1PkmSdBgsACVJmkdOveIiSJIQ2u1iIC6B8HDg0cDjgZOBBUBP1jklZW4K2MnMXX7fAb4T4YcQbyu0WtPtXBI3rXtW1hklSdIRYgEoSdI8tmrjhQBJTOkJsAT4beB3gMcAD2HmuLD3B0rzXxPYC/wM+BbwnQDfjYTbEtoTU42YDvTm+NJp67POKUmSjgILQEmSusjpGy4kBHJppAZheSQ+mpnNwo9g5v7AOlDKOqekw9Zk5h6/nwI/BK4JxG9HkptCDCNAa9O6s7LOKEmSZokFoCRJXWrV1z9Nsr9MLDfzaZobCLCUmSLwkcBDgQcDC5mZEPQ9gzR3RWYKv93ADcB1wPeAq4HbcuT2tlqNVrlU49LVT846qyRJyoBv5iVJ0i+sueJCQhJCu53W0xiWhsBDmDky/FvAg4DjsBCUsnZ34XcncD1wLZGrCfwwwNZSK+5pJiFeccb6rHNKkqQ5wjfvkiTpfp2x4bNMk6+EwLIYOSnAo5iZFFwBLGNmSjDJOqc0j6XAHuB24EZmpvuuiXBjEuLtTQpjX1vz9KwzSpKkOcwCUJIkHbBVF14IiyI0yJGGYSLLgJOAhzNTCh4PLAIG8H2GdCgiMApsB24CrgV+QOQnAW5PiNuJtNpJYPPa9VlnlSRJHcI35pIk6bCs3fAlwuQkrVKuFJO4GFjOzP2BDwcexsyk4BBQxfce0q+KwBgzd/fdCfwI+D7wYwK3xHZ6ByGZCoFo2SdJkg6Hb8IlSdIRtWrTJSSFAu3p6VyIVCAug3g8hJXAicDJzGwcHsCtw+oeTWYm+/YBNzOzrOPHEH8G4eeBcAdpnExjoxXIsflJz8o6ryRJmkcsACVJ0lH33G+9l0+98n+z5p/Oz7VjrhwJ/SHG5QROYKYQPOmur2OYmRSs4PsUdaYITALjwA5mir6f3vXrjQFuioQ9EKeKTZppgA1PXp91ZkmSNM/5xlqSJGXm9MsuBAhpQoWZ4m8pM0XgCcwsGFnOzBHixUAPM9OCuaxzS8ws5pgGppgp+m5lZrLv58CNRG6AsC0Qx1oxP1llOr06Wc6utb+TdW5JktSFLAAlSdKcs2bj5wjEpJ3melNCPcAgsJzIiXdNDR7LTFl4LNAPFLAY1NHRZub47hgz9/TdftfXTNE3s6hjBzBKmo71Vxe07tj5M64+8w+zzi1JkvQLFoCSJKljPHHD+aQhhkKaqxDoAwYJHEvkBGYmBZcCw8xMDC5k5p7BApBknV1zWspM0TcCbGOm0NsO3AbcwkzRdwewLwlxXyxOj4V2IW5c5T19kiSpM1gASpKkeeHUyz4HsSfkctO9kTAIcYCZ7cPLgOOYOU58LLCAmYnCAWaOHTs52B3a/HIJx+67vrYzc3T31gi3BNgJ7AH2JmlztJXk0ivXPjPr3JIkSYfNAlCSJM17D//uFlorj2fhNd8tEdsDMTDETAHYByxiZmJwKbDkrr+v/dqXm4rnthYzR3RHf+VrN7CVmWO724DbI+wOsA/i7iTm9rZz5emQjrJ5rZN8kiRpfrMAlCRJXW3VFy+EFNoVQhJCQqAYYuwHBiIMBMIQxLtLwiFmjhgP3fV192KSyq98lfDI8ZHQYGab7tSv/Hp3sbcb2HXXr9uA3YGwNxL3BtgbiXsCyWRIQ5omuRRg89rfz/r3I0mSlBkLQEmSpAdw+sYLmS5CYSrmCCEhhlyIMZ8SKkmItTiziKQPQt+vHD0eZOY/v3uKsH7Xr1VmSsLCr33l+eUyk05/jxb55fKM1l2//urXNDMTeyP8cmJvhJnjuXvu+uu7/j7uD7AvEkZjYCTE0CTENjGmzXJolxqw8fT1Wf9+JUmS5rROf3MpSZI0p/zepy7ky3/wJNZcenlo58hDmhDIRUIuEHMhkoPYE0OoEqhC7AWqEKpEeoEyMwVh6a6/vq+//9X/PMcvy8O7l54U+OV7vcBMwfjr9x3eXdLdLd719+ldv7Z/5dfpu76mfuXXqXv5z3753wuMx8hYCHGMyDiEsRDjGISJGGhDaENsE2mHGNrF0Gxf+uVnxec+53186rF/nvX/lJIkSfOGBaAkSdIc9ZgNnyFG6CGfJCGXi6QJISYxhgRCLkASiUmEEO76ioS7jh/HXz+GfF/HktN7/m1IAQIxjRDjTCkYE0IaIQ3ENoGUNKQhkJI222MhTUMIfHvtc7L+VyZJkiRJkiRJkiRJkiRJkiRJkiRJkiRJkiRJkiRJkiRJkiRJkiRJkiRJkiRJkiRJkiRJkiRJkiRJkiRJkiRJkiRJkiRJkiRJkiRJkiRJkiRJkiRJkiRJkiRJkiRJkiRJkiRJkiRJkiRJkiRJkiRJkiRJkiRJkiRJkiRJkiRJkiRJkiRJkiRJkiRJkiRJkiRJkiRJkiRJkiRJkiRJkiRJkiRJkiRJkiRJkiRJkiRJkiRJkiRJkiRJkiRJkiRJkiRJkiRJkiRJkiRJkiRJkiRJkiRJkiRJkiRJkiRJkiRJkiRJkiRJkiRJkiRJkiRJkiRJkiRJkiRJkiRJkiRJkiRJkiRJkiRJkiRJkiRJkiRJkiRJkiRJkiRJkiRJkiRJkiRJkiRJkiRJkiRJkiRJkiRJkiRJkiRJkiRJkiRJkiRJkiRJkiRJkiRJkiRJkiRJkiRJkiRJkiRJkiRJkiRJkiRJkiRJkiRJkiRJkiRJkiRJkiRJkiRJkiRJkiRJkiRJkiRJkiRJkiRJkiRJkiRJkiRJkiRJkiRJkiRJkiRJkiRJkiRJkiRJkiRJkiRJkiRJkiRJkiRJkiRJkiRJkiRJkiRJkiRJkiRJkiRJkiRJkiRJkiRJkiRJkiRJkiRJkiRJkiRJkiRJkiRJkiRJkiRJkiRJkiRJkiRJkiRJkiRJkiRJkiRJkiRJkiRJkiRJkiRJkiRJkiRJkiRJkiRJkiRJkiRJkiRJkiRJkiRJkiRJkiRJkiRJkiRJkiRJkiRJkiRJkiRJkiRJkiRJkiRJkiRJkiRJkv7/9uCABAAAAEDQ/9f9CBUAAAAAAAAAAAAAAAAAAAAAAAAAAAAAAAAAAAAAAAAAAAAAAAAAAAAAAAAAAAAAAAAAAAAAAAAAAAAAAAAAAAAAAAAAAAAAAAAAAAAAAAAAAAAAAAAAAAAAAAAAAAAAAAAAAAAAAAAAAAAAAAAAAAAAAAAAAAAAAAAAAAAAAAAAAAAAAAAAAAAAAAAAAAAAAAAAAAAAAAAAAAAAAAAAAAAAAAAAAAAAAAAAAAAAAAAAAAAAAAAAAAAAAAAAAAAAAAAAAAAAAAAAAAAAAAAAAAAAAAAAAAAAAAAAAAAAAAAAAAAAAAAAAAAAAAAAAAAA/gJxUdIE8TOSMgAAACV0RVh0ZGF0ZTpjcmVhdGUAMjAyMC0wMy0xM1QxOToyMjo0MSswMDowMGWaGMYAAAAldEVYdGRhdGU6bW9kaWZ5ADIwMTktMDgtMDdUMTI6MTI6MTgrMDA6MDCWelV6AAAATXRFWHRzb2Z0d2FyZQBJbWFnZU1hZ2ljayA2LjguOS05IFExNiB4ODZfNjQgMjAxOS0xMS0xMiBodHRwOi8vd3d3LmltYWdlbWFnaWNrLm9yZ2RU/qAAAAAYdEVYdFRodW1iOjpEb2N1bWVudDo6UGFnZXMAMaf/uy8AAAAZdEVYdFRodW1iOjpJbWFnZTo6SGVpZ2h0ADI0MDDHwXkUAAAAGHRFWHRUaHVtYjo6SW1hZ2U6OldpZHRoADI0MDDSiKUNAAAAGXRFWHRUaHVtYjo6TWltZXR5cGUAaW1hZ2UvcG5nP7JWTgAAABd0RVh0VGh1bWI6Ok1UaW1lADE1NjUxNzk5MziBhsXHAAAAE3RFWHRUaHVtYjo6U2l6ZQA4Ni4xS0JCaRALEgAAADB0RVh0VGh1bWI6OlVSSQBmaWxlOi8vZWxhc3RpYy1lbGFzdGljc2VhcmNoLWxvZ28ucG5neDWr7gAAAABJRU5ErkJggg==;" vertex="1" parent="1">
          <mxGeometry x="134" y="131" width="49" height="49" as="geometry" />
        </mxCell>
        <mxCell id="SwJtXtkmymtZSZwV3173-8" style="edgeStyle=orthogonalEdgeStyle;rounded=0;orthogonalLoop=1;jettySize=auto;html=1;entryX=0.5;entryY=1;entryDx=0;entryDy=0;" edge="1" parent="1" source="SwJtXtkmymtZSZwV3173-7" target="SwJtXtkmymtZSZwV3173-5">
          <mxGeometry relative="1" as="geometry" />
        </mxCell>
        <mxCell id="SwJtXtkmymtZSZwV3173-7" value="Front-End" style="sketch=0;pointerEvents=1;shadow=0;dashed=0;html=1;strokeColor=none;fillColor=#505050;labelPosition=center;verticalLabelPosition=bottom;verticalAlign=top;outlineConnect=0;align=center;shape=mxgraph.office.devices.lcd_monitor;" vertex="1" parent="1">
          <mxGeometry x="461.5" y="356" width="58" height="48" as="geometry" />
        </mxCell>
        <mxCell id="SwJtXtkmymtZSZwV3173-10" value="RulesEngine" style="rounded=1;whiteSpace=wrap;html=1;fillColor=#f8cecc;strokeColor=#b85450;" vertex="1" parent="1">
          <mxGeometry x="491" y="112" width="120" height="50" as="geometry" />
        </mxCell>
        <mxCell id="SwJtXtkmymtZSZwV3173-12" value="" style="rounded=1;whiteSpace=wrap;html=1;fillColor=#d5e8d4;strokeColor=#82b366;" vertex="1" parent="1">
          <mxGeometry x="406" y="200" width="205" height="26" as="geometry" />
        </mxCell>
        <mxCell id="SwJtXtkmymtZSZwV3173-14" style="edgeStyle=orthogonalEdgeStyle;rounded=0;orthogonalLoop=1;jettySize=auto;html=1;exitX=0;exitY=0.5;exitDx=0;exitDy=0;entryX=1;entryY=0.5;entryDx=0;entryDy=0;" edge="1" parent="1" source="SwJtXtkmymtZSZwV3173-13" target="SwJtXtkmymtZSZwV3173-6">
          <mxGeometry relative="1" as="geometry" />
        </mxCell>
        <mxCell id="SwJtXtkmymtZSZwV3173-13" value="Query Builder" style="rounded=1;whiteSpace=wrap;html=1;fillColor=#fff2cc;strokeColor=#d6b656;" vertex="1" parent="1">
          <mxGeometry x="406" y="112" width="74" height="50" as="geometry" />
        </mxCell>
        <mxCell id="SwJtXtkmymtZSZwV3173-16" value="" style="html=1;shadow=0;dashed=0;align=center;verticalAlign=middle;shape=mxgraph.arrows2.arrow;dy=0.57;dx=16.4;direction=north;notch=0;connectable=0;allowArrows=0;" vertex="1" parent="1">
          <mxGeometry x="430" y="166" width="39" height="24" as="geometry" />
        </mxCell>
        <mxCell id="SwJtXtkmymtZSZwV3173-18" value="" style="html=1;shadow=0;dashed=0;align=center;verticalAlign=middle;shape=mxgraph.arrows2.arrow;dy=0.57;dx=16.4;direction=north;notch=0;connectable=0;allowArrows=0;" vertex="1" parent="1">
          <mxGeometry x="544" y="166" width="39" height="24" as="geometry" />
        </mxCell>
      </root>
    </mxGraphModel>
  </diagram>
</mxfile>
